<svg width="1280" height="1274" viewBox="0 0 1280 1274" fill="none" xmlns="http://www.w3.org/2000/svg">
<rect width="1280" height="1258" transform="translate(0 16)" fill="#F9F9F9"/>
<rect width="1280" height="1258" transform="translate(0 16)" fill="url(#paint0_radial_82_2)"/>
<g clip-path="url(#clip0_82_2)">
<rect y="48" width="1280" height="1" fill="#C6C6C6" fill-opacity="0.3"/>
<rect y="975" width="1280" height="1" fill="#C6C6C6" fill-opacity="0.3"/>
<rect x="48" width="1" height="1024" fill="#C6C6C6" fill-opacity="0.3"/>
<rect x="1231" width="1" height="1024" fill="#C6C6C6" fill-opacity="0.3"/>
<path d="M16.9258 24V18.7305H17.6719V23.3906H20.2969V24H16.9258ZM24.8398 24L24.3008 22.5078H22.1016L21.5664 24H20.8008L22.793 18.7305H23.6406L25.5977 24H24.8398ZM23.5391 20.2734C23.5052 20.1745 23.4701 20.0742 23.4336 19.9727C23.3971 19.8711 23.3639 19.7747 23.334 19.6836C23.304 19.5924 23.278 19.5124 23.2559 19.4434C23.2337 19.3743 23.2174 19.3242 23.207 19.293C23.1966 19.3242 23.181 19.375 23.1602 19.4453C23.1393 19.5156 23.1139 19.5964 23.084 19.6875C23.054 19.7786 23.0228 19.875 22.9902 19.9766C22.9577 20.0781 22.9245 20.1771 22.8906 20.2734L22.3008 21.9258H24.1094L23.5391 20.2734ZM28.3711 19.3398V24H27.6289V19.3398H25.8984V18.7305H30.1016V19.3398H28.3711ZM32.3398 24V22.832H33.2578V24H32.3398ZM32.3398 20.9414V19.7734H33.2578V20.9414H32.3398ZM41.3086 22.1875V21.5625H43.4961V22.1875H41.3086ZM48.9805 19.2734C48.7305 19.6328 48.4941 20.0039 48.2715 20.3867C48.0488 20.7695 47.8529 21.1595 47.6836 21.5566C47.5143 21.9538 47.3802 22.3568 47.2812 22.7656C47.1823 23.1745 47.1328 23.5859 47.1328 24H46.3984C46.3984 23.5885 46.4505 23.1777 46.5547 22.7676C46.6589 22.3574 46.7982 21.9531 46.9727 21.5547C47.1471 21.1562 47.349 20.7669 47.5781 20.3867C47.8073 20.0065 48.0482 19.6432 48.3008 19.2969H45.4219V18.7305H48.9805V19.2734ZM51.543 24V22.832H52.4609V24H51.543ZM54.9688 24V23.543C55.0833 23.2904 55.2344 23.0573 55.4219 22.8438C55.6094 22.6302 55.8092 22.429 56.0215 22.2402C56.2337 22.0514 56.4473 21.8711 56.6621 21.6992C56.877 21.5273 57.071 21.3574 57.2441 21.1895C57.4173 21.0215 57.5586 20.8509 57.668 20.6777C57.7773 20.5046 57.832 20.3216 57.832 20.1289C57.832 19.9727 57.8066 19.8379 57.7559 19.7246C57.7051 19.6113 57.6335 19.5176 57.541 19.4434C57.4486 19.3691 57.3392 19.3145 57.2129 19.2793C57.0866 19.2441 56.9466 19.2266 56.793 19.2266C56.6523 19.2266 56.5215 19.2461 56.4004 19.2852C56.2793 19.3242 56.1732 19.3828 56.082 19.4609C55.9909 19.5391 55.9167 19.6361 55.8594 19.752C55.8021 19.8678 55.7643 20.0026 55.7461 20.1562L55.0273 20.0898C55.0508 19.8919 55.1042 19.7057 55.1875 19.5312C55.2708 19.3568 55.3848 19.2038 55.5293 19.0723C55.6738 18.9408 55.8516 18.8372 56.0625 18.7617C56.2734 18.6862 56.5169 18.6484 56.793 18.6484C57.0664 18.6484 57.3118 18.6797 57.5293 18.7422C57.7467 18.8047 57.9316 18.8965 58.084 19.0176C58.2363 19.1387 58.3529 19.2891 58.4336 19.4688C58.5143 19.6484 58.5547 19.8542 58.5547 20.0859C58.5547 20.3307 58.4987 20.5579 58.3867 20.7676C58.2747 20.9772 58.1309 21.1758 57.9551 21.3633C57.7793 21.5508 57.5846 21.7292 57.3711 21.8984C57.1576 22.0677 56.9492 22.2357 56.7461 22.4023C56.543 22.569 56.3581 22.7363 56.1914 22.9043C56.0247 23.0723 55.8997 23.2474 55.8164 23.4297H58.6406V24H54.9688ZM63.5 22.2656C63.5 22.526 63.4583 22.7676 63.375 22.9902C63.2917 23.2129 63.168 23.4043 63.0039 23.5645C62.8398 23.7246 62.6361 23.8503 62.3926 23.9414C62.1491 24.0326 61.8672 24.0781 61.5469 24.0781C61.2578 24.0781 61.0059 24.0443 60.791 23.9766C60.5762 23.9089 60.3945 23.8158 60.2461 23.6973C60.0977 23.5788 59.9798 23.4401 59.8926 23.2812C59.8053 23.1224 59.7435 22.9518 59.707 22.7695L60.418 22.6875C60.4466 22.7917 60.487 22.8926 60.5391 22.9902C60.5911 23.0879 60.6621 23.1751 60.752 23.252C60.8418 23.3288 60.9525 23.39 61.084 23.4355C61.2155 23.4811 61.375 23.5039 61.5625 23.5039C61.7448 23.5039 61.9102 23.4759 62.0586 23.4199C62.207 23.3639 62.334 23.2839 62.4395 23.1797C62.5449 23.0755 62.6263 22.9473 62.6836 22.7949C62.7409 22.6426 62.7695 22.4714 62.7695 22.2812C62.7695 22.125 62.7422 21.9798 62.6875 21.8457C62.6328 21.7116 62.5547 21.5951 62.4531 21.4961C62.3516 21.3971 62.2272 21.3197 62.0801 21.2637C61.9329 21.2077 61.7656 21.1797 61.5781 21.1797C61.4609 21.1797 61.3529 21.1901 61.2539 21.2109C61.1549 21.2318 61.0632 21.2604 60.9785 21.2969C60.8939 21.3333 60.8171 21.3757 60.748 21.4238C60.679 21.472 60.6146 21.5221 60.5547 21.5742H59.8672L60.0508 18.7305H63.1797V19.2969H60.6992L60.5859 20.957C60.7109 20.8607 60.8672 20.778 61.0547 20.709C61.2422 20.64 61.4648 20.6055 61.7227 20.6055C61.9961 20.6055 62.2422 20.6471 62.4609 20.7305C62.6797 20.8138 62.8659 20.929 63.0195 21.0762C63.1732 21.2233 63.2917 21.3984 63.375 21.6016C63.4583 21.8047 63.5 22.026 63.5 22.2656ZM68.1836 19.2734C67.9336 19.6328 67.6973 20.0039 67.4746 20.3867C67.252 20.7695 67.056 21.1595 66.8867 21.5566C66.7174 21.9538 66.5833 22.3568 66.4844 22.7656C66.3854 23.1745 66.3359 23.5859 66.3359 24H65.6016C65.6016 23.5885 65.6536 23.1777 65.7578 22.7676C65.862 22.3574 66.0013 21.9531 66.1758 21.5547C66.3503 21.1562 66.5521 20.7669 66.7812 20.3867C67.0104 20.0065 67.2513 19.6432 67.5039 19.2969H64.625V18.7305H68.1836V19.2734ZM73.1016 22.2656C73.1016 22.526 73.0599 22.7676 72.9766 22.9902C72.8932 23.2129 72.7695 23.4043 72.6055 23.5645C72.4414 23.7246 72.2376 23.8503 71.9941 23.9414C71.7507 24.0326 71.4688 24.0781 71.1484 24.0781C70.8594 24.0781 70.6074 24.0443 70.3926 23.9766C70.1777 23.9089 69.9961 23.8158 69.8477 23.6973C69.6992 23.5788 69.5814 23.4401 69.4941 23.2812C69.4069 23.1224 69.3451 22.9518 69.3086 22.7695L70.0195 22.6875C70.0482 22.7917 70.0885 22.8926 70.1406 22.9902C70.1927 23.0879 70.2637 23.1751 70.3535 23.252C70.4434 23.3288 70.554 23.39 70.6855 23.4355C70.8171 23.4811 70.9766 23.5039 71.1641 23.5039C71.3464 23.5039 71.5117 23.4759 71.6602 23.4199C71.8086 23.3639 71.9355 23.2839 72.041 23.1797C72.1465 23.0755 72.2279 22.9473 72.2852 22.7949C72.3424 22.6426 72.3711 22.4714 72.3711 22.2812C72.3711 22.125 72.3438 21.9798 72.2891 21.8457C72.2344 21.7116 72.1562 21.5951 72.0547 21.4961C71.9531 21.3971 71.8288 21.3197 71.6816 21.2637C71.5345 21.2077 71.3672 21.1797 71.1797 21.1797C71.0625 21.1797 70.9544 21.1901 70.8555 21.2109C70.7565 21.2318 70.6647 21.2604 70.5801 21.2969C70.4954 21.3333 70.4186 21.3757 70.3496 21.4238C70.2806 21.472 70.2161 21.5221 70.1562 21.5742H69.4688L69.6523 18.7305H72.7812V19.2969H70.3008L70.1875 20.957C70.3125 20.8607 70.4688 20.778 70.6562 20.709C70.8438 20.64 71.0664 20.6055 71.3242 20.6055C71.5977 20.6055 71.8438 20.6471 72.0625 20.7305C72.2812 20.8138 72.4674 20.929 72.6211 21.0762C72.7747 21.2233 72.8932 21.3984 72.9766 21.6016C73.0599 21.8047 73.1016 22.026 73.1016 22.2656ZM77.1289 19.7617C77.1289 19.9154 77.0996 20.0599 77.041 20.1953C76.9824 20.3307 76.9023 20.4486 76.8008 20.5488C76.6992 20.6491 76.5801 20.7285 76.4434 20.7871C76.3066 20.8457 76.1615 20.875 76.0078 20.875C75.8542 20.875 75.7096 20.8457 75.5742 20.7871C75.4388 20.7285 75.3203 20.6491 75.2188 20.5488C75.1172 20.4486 75.0365 20.3307 74.9766 20.1953C74.9167 20.0599 74.8867 19.9154 74.8867 19.7617C74.8867 19.6055 74.9167 19.4596 74.9766 19.3242C75.0365 19.1888 75.1172 19.071 75.2188 18.9707C75.3203 18.8704 75.4388 18.7917 75.5742 18.7344C75.7096 18.6771 75.8542 18.6484 76.0078 18.6484C76.1615 18.6484 76.3066 18.6771 76.4434 18.7344C76.5801 18.7917 76.6992 18.8704 76.8008 18.9707C76.9023 19.071 76.9824 19.1888 77.041 19.3242C77.0996 19.4596 77.1289 19.6055 77.1289 19.7617ZM76.7031 19.7617C76.7031 19.6628 76.6855 19.571 76.6504 19.4863C76.6152 19.4017 76.5664 19.3275 76.5039 19.2637C76.4414 19.1999 76.3678 19.1497 76.2832 19.1133C76.1986 19.0768 76.1068 19.0586 76.0078 19.0586C75.9115 19.0586 75.821 19.0768 75.7363 19.1133C75.6517 19.1497 75.5781 19.1999 75.5156 19.2637C75.4531 19.3275 75.4036 19.4017 75.3672 19.4863C75.3307 19.571 75.3125 19.6628 75.3125 19.7617C75.3125 19.8581 75.3307 19.9486 75.3672 20.0332C75.4036 20.1178 75.4531 20.1921 75.5156 20.2559C75.5781 20.3197 75.6517 20.3704 75.7363 20.4082C75.821 20.446 75.9115 20.4648 76.0078 20.4648C76.1068 20.4648 76.1986 20.446 76.2832 20.4082C76.3678 20.3704 76.4414 20.3197 76.5039 20.2559C76.5664 20.1921 76.6152 20.1178 76.6504 20.0332C76.6855 19.9486 76.7031 19.8581 76.7031 19.7617ZM87.6172 22.5547C87.6172 22.776 87.5768 22.9798 87.4961 23.166C87.4154 23.3522 87.2923 23.513 87.127 23.6484C86.9616 23.7839 86.752 23.8893 86.498 23.9648C86.2441 24.0404 85.9427 24.0781 85.5938 24.0781C84.9844 24.0781 84.5098 23.9583 84.1699 23.7188C83.8301 23.4792 83.6133 23.1328 83.5195 22.6797L84.2422 22.5352C84.2734 22.6784 84.3203 22.8086 84.3828 22.9258C84.4453 23.043 84.5312 23.1439 84.6406 23.2285C84.75 23.3132 84.8841 23.3789 85.043 23.4258C85.2018 23.4727 85.3919 23.4961 85.6133 23.4961C85.8008 23.4961 85.972 23.4785 86.127 23.4434C86.2819 23.4082 86.4147 23.3529 86.5254 23.2773C86.6361 23.2018 86.7227 23.1055 86.7852 22.9883C86.8477 22.8711 86.8789 22.7305 86.8789 22.5664C86.8789 22.3841 86.8366 22.2357 86.752 22.1211C86.6673 22.0065 86.556 21.9128 86.418 21.8398C86.2799 21.7669 86.1243 21.7077 85.9512 21.6621C85.778 21.6165 85.6029 21.5716 85.4258 21.5273C85.2956 21.4935 85.1641 21.4577 85.0312 21.4199C84.8984 21.3822 84.7708 21.3379 84.6484 21.2871C84.526 21.2363 84.4121 21.1764 84.3066 21.1074C84.2012 21.0384 84.1087 20.9551 84.0293 20.8574C83.9499 20.7598 83.888 20.6452 83.8438 20.5137C83.7995 20.3822 83.7773 20.2292 83.7773 20.0547C83.7773 19.8047 83.8242 19.5905 83.918 19.4121C84.0117 19.2337 84.1406 19.0879 84.3047 18.9746C84.4688 18.8613 84.6628 18.7786 84.8867 18.7266C85.1107 18.6745 85.3529 18.6484 85.6133 18.6484C85.9154 18.6484 86.1725 18.6751 86.3848 18.7285C86.597 18.7819 86.7767 18.862 86.9238 18.9688C87.071 19.0755 87.1888 19.2077 87.2773 19.3652C87.3659 19.5228 87.4362 19.7057 87.4883 19.9141L86.7539 20.043C86.7253 19.9102 86.6829 19.7917 86.627 19.6875C86.571 19.5833 86.4967 19.4961 86.4043 19.4258C86.3118 19.3555 86.2005 19.3021 86.0703 19.2656C85.9401 19.2292 85.7865 19.2109 85.6094 19.2109C85.401 19.2109 85.2266 19.2324 85.0859 19.2754C84.9453 19.3184 84.832 19.377 84.7461 19.4512C84.6602 19.5254 84.5983 19.6133 84.5605 19.7148C84.5228 19.8164 84.5039 19.9258 84.5039 20.043C84.5039 20.1992 84.5384 20.3262 84.6074 20.4238C84.6764 20.5215 84.7702 20.6022 84.8887 20.666C85.0072 20.7298 85.1452 20.7826 85.3027 20.8242C85.4603 20.8659 85.6289 20.9102 85.8086 20.957C85.9518 20.9935 86.0964 21.0319 86.2422 21.0723C86.388 21.1126 86.528 21.1602 86.6621 21.2148C86.7962 21.2695 86.9212 21.334 87.0371 21.4082C87.153 21.4824 87.2539 21.5729 87.3398 21.6797C87.4258 21.7865 87.4935 21.9115 87.543 22.0547C87.5924 22.1979 87.6172 22.3646 87.6172 22.5547Z" fill="#DADADA"/>
<path d="M1188.12 24V18.7305H1188.86V23.3906H1191.49V24H1188.12ZM1196.39 21.3398C1196.39 21.7904 1196.34 22.1862 1196.25 22.5273C1196.16 22.8685 1196.03 23.1543 1195.86 23.3848C1195.69 23.6152 1195.48 23.7884 1195.23 23.9043C1194.98 24.0202 1194.7 24.0781 1194.39 24.0781C1194.05 24.0781 1193.76 24.0169 1193.51 23.8945C1193.26 23.7721 1193.06 23.5944 1192.89 23.3613C1192.72 23.1283 1192.6 22.8418 1192.51 22.502C1192.43 22.1621 1192.39 21.7747 1192.39 21.3398C1192.39 20.8893 1192.43 20.4961 1192.52 20.1602C1192.61 19.8242 1192.74 19.5443 1192.91 19.3203C1193.08 19.0964 1193.29 18.9284 1193.54 18.8164C1193.78 18.7044 1194.07 18.6484 1194.39 18.6484C1195.04 18.6484 1195.53 18.8743 1195.87 19.3262C1196.22 19.778 1196.39 20.4492 1196.39 21.3398ZM1195.6 21.3398C1195.6 20.6367 1195.5 20.1139 1195.3 19.7715C1195.09 19.429 1194.79 19.2578 1194.39 19.2578C1193.99 19.2578 1193.68 19.429 1193.48 19.7715C1193.28 20.1139 1193.17 20.6367 1193.17 21.3398C1193.17 22.043 1193.28 22.5742 1193.48 22.9336C1193.69 23.293 1193.99 23.4727 1194.39 23.4727C1194.81 23.4727 1195.12 23.2904 1195.31 22.9258C1195.51 22.5612 1195.6 22.0326 1195.6 21.3398ZM1200.06 24L1198.03 19.5859C1198.04 19.6979 1198.05 19.8125 1198.06 19.9297C1198.06 20.0286 1198.07 20.1361 1198.08 20.252C1198.09 20.3678 1198.09 20.4766 1198.09 20.5781V24H1197.42V18.7305H1198.29L1200.35 23.1758C1200.34 23.0716 1200.33 22.9596 1200.32 22.8398C1200.31 22.7383 1200.3 22.6237 1200.29 22.4961C1200.29 22.3685 1200.28 22.2383 1200.28 22.1055V18.7305H1200.96V24H1200.06ZM1203.53 24V22.832H1204.45V24H1203.53ZM1203.53 20.9414V19.7734H1204.45V20.9414H1203.53ZM1211.81 24V23.4336H1213.52V19.4453C1213.47 19.5495 1213.39 19.6478 1213.26 19.7402C1213.14 19.8327 1212.99 19.9128 1212.83 19.9805C1212.67 20.0482 1212.49 20.1022 1212.31 20.1426C1212.12 20.1829 1211.94 20.2031 1211.77 20.2031V19.625C1211.96 19.625 1212.15 19.6029 1212.34 19.5586C1212.53 19.5143 1212.7 19.4525 1212.86 19.373C1213.02 19.2936 1213.17 19.1992 1213.29 19.0898C1213.42 18.9805 1213.51 18.8607 1213.58 18.7305H1214.23V23.4336H1215.61V24H1211.81ZM1216.61 24V23.4336H1218.32V19.4453C1218.27 19.5495 1218.19 19.6478 1218.06 19.7402C1217.94 19.8327 1217.79 19.9128 1217.63 19.9805C1217.47 20.0482 1217.29 20.1022 1217.11 20.1426C1216.92 20.1829 1216.74 20.2031 1216.57 20.2031V19.625C1216.77 19.625 1216.95 19.6029 1217.14 19.5586C1217.33 19.5143 1217.5 19.4525 1217.66 19.373C1217.82 19.2936 1217.97 19.1992 1218.09 19.0898C1218.22 18.9805 1218.31 18.8607 1218.38 18.7305H1219.03V23.4336H1220.41V24H1216.61ZM1221.36 24V23.543C1221.47 23.2904 1221.62 23.0573 1221.81 22.8438C1222 22.6302 1222.2 22.429 1222.41 22.2402C1222.62 22.0514 1222.84 21.8711 1223.05 21.6992C1223.27 21.5273 1223.46 21.3574 1223.63 21.1895C1223.81 21.0215 1223.95 20.8509 1224.06 20.6777C1224.17 20.5046 1224.22 20.3216 1224.22 20.1289C1224.22 19.9727 1224.2 19.8379 1224.15 19.7246C1224.09 19.6113 1224.02 19.5176 1223.93 19.4434C1223.84 19.3691 1223.73 19.3145 1223.6 19.2793C1223.48 19.2441 1223.34 19.2266 1223.18 19.2266C1223.04 19.2266 1222.91 19.2461 1222.79 19.2852C1222.67 19.3242 1222.56 19.3828 1222.47 19.4609C1222.38 19.5391 1222.31 19.6361 1222.25 19.752C1222.19 19.8678 1222.15 20.0026 1222.14 20.1562L1221.42 20.0898C1221.44 19.8919 1221.49 19.7057 1221.58 19.5312C1221.66 19.3568 1221.77 19.2038 1221.92 19.0723C1222.06 18.9408 1222.24 18.8372 1222.45 18.7617C1222.66 18.6862 1222.91 18.6484 1223.18 18.6484C1223.46 18.6484 1223.7 18.6797 1223.92 18.7422C1224.14 18.8047 1224.32 18.8965 1224.47 19.0176C1224.63 19.1387 1224.74 19.2891 1224.82 19.4688C1224.9 19.6484 1224.94 19.8542 1224.94 20.0859C1224.94 20.3307 1224.89 20.5579 1224.78 20.7676C1224.66 20.9772 1224.52 21.1758 1224.34 21.3633C1224.17 21.5508 1223.97 21.7292 1223.76 21.8984C1223.55 22.0677 1223.34 22.2357 1223.14 22.4023C1222.93 22.569 1222.75 22.7363 1222.58 22.9043C1222.41 23.0723 1222.29 23.2474 1222.21 23.4297H1225.03V24H1221.36ZM1227.53 24V22.832H1228.45V24H1227.53ZM1234.57 19.2734C1234.32 19.6328 1234.09 20.0039 1233.86 20.3867C1233.64 20.7695 1233.45 21.1595 1233.28 21.5566C1233.11 21.9538 1232.97 22.3568 1232.87 22.7656C1232.77 23.1745 1232.73 23.5859 1232.73 24H1231.99C1231.99 23.5885 1232.04 23.1777 1232.15 22.7676C1232.25 22.3574 1232.39 21.9531 1232.56 21.5547C1232.74 21.1562 1232.94 20.7669 1233.17 20.3867C1233.4 20.0065 1233.64 19.6432 1233.89 19.2969H1231.01V18.7305H1234.57V19.2734ZM1239.49 22.2656C1239.49 22.526 1239.45 22.7676 1239.37 22.9902C1239.28 23.2129 1239.16 23.4043 1238.99 23.5645C1238.83 23.7246 1238.63 23.8503 1238.38 23.9414C1238.14 24.0326 1237.86 24.0781 1237.54 24.0781C1237.25 24.0781 1237 24.0443 1236.78 23.9766C1236.57 23.9089 1236.39 23.8158 1236.24 23.6973C1236.09 23.5788 1235.97 23.4401 1235.88 23.2812C1235.8 23.1224 1235.73 22.9518 1235.7 22.7695L1236.41 22.6875C1236.44 22.7917 1236.48 22.8926 1236.53 22.9902C1236.58 23.0879 1236.65 23.1751 1236.74 23.252C1236.83 23.3288 1236.94 23.39 1237.07 23.4355C1237.21 23.4811 1237.37 23.5039 1237.55 23.5039C1237.74 23.5039 1237.9 23.4759 1238.05 23.4199C1238.2 23.3639 1238.32 23.2839 1238.43 23.1797C1238.54 23.0755 1238.62 22.9473 1238.67 22.7949C1238.73 22.6426 1238.76 22.4714 1238.76 22.2812C1238.76 22.125 1238.73 21.9798 1238.68 21.8457C1238.62 21.7116 1238.55 21.5951 1238.44 21.4961C1238.34 21.3971 1238.22 21.3197 1238.07 21.2637C1237.92 21.2077 1237.76 21.1797 1237.57 21.1797C1237.45 21.1797 1237.34 21.1901 1237.24 21.2109C1237.15 21.2318 1237.05 21.2604 1236.97 21.2969C1236.88 21.3333 1236.81 21.3757 1236.74 21.4238C1236.67 21.472 1236.61 21.5221 1236.55 21.5742H1235.86L1236.04 18.7305H1239.17V19.2969H1236.69L1236.58 20.957C1236.7 20.8607 1236.86 20.778 1237.05 20.709C1237.23 20.64 1237.46 20.6055 1237.71 20.6055C1237.99 20.6055 1238.23 20.6471 1238.45 20.7305C1238.67 20.8138 1238.86 20.929 1239.01 21.0762C1239.16 21.2233 1239.28 21.3984 1239.37 21.6016C1239.45 21.8047 1239.49 22.026 1239.49 22.2656ZM1240.56 24V23.543C1240.68 23.2904 1240.83 23.0573 1241.01 22.8438C1241.2 22.6302 1241.4 22.429 1241.61 22.2402C1241.83 22.0514 1242.04 21.8711 1242.25 21.6992C1242.47 21.5273 1242.66 21.3574 1242.84 21.1895C1243.01 21.0215 1243.15 20.8509 1243.26 20.6777C1243.37 20.5046 1243.42 20.3216 1243.42 20.1289C1243.42 19.9727 1243.4 19.8379 1243.35 19.7246C1243.3 19.6113 1243.23 19.5176 1243.13 19.4434C1243.04 19.3691 1242.93 19.3145 1242.81 19.2793C1242.68 19.2441 1242.54 19.2266 1242.39 19.2266C1242.24 19.2266 1242.11 19.2461 1241.99 19.2852C1241.87 19.3242 1241.77 19.3828 1241.67 19.4609C1241.58 19.5391 1241.51 19.6361 1241.45 19.752C1241.39 19.8678 1241.36 20.0026 1241.34 20.1562L1240.62 20.0898C1240.64 19.8919 1240.7 19.7057 1240.78 19.5312C1240.86 19.3568 1240.98 19.2038 1241.12 19.0723C1241.27 18.9408 1241.44 18.8372 1241.65 18.7617C1241.87 18.6862 1242.11 18.6484 1242.39 18.6484C1242.66 18.6484 1242.9 18.6797 1243.12 18.7422C1243.34 18.8047 1243.52 18.8965 1243.68 19.0176C1243.83 19.1387 1243.95 19.2891 1244.03 19.4688C1244.11 19.6484 1244.15 19.8542 1244.15 20.0859C1244.15 20.3307 1244.09 20.5579 1243.98 20.7676C1243.87 20.9772 1243.72 21.1758 1243.55 21.3633C1243.37 21.5508 1243.18 21.7292 1242.96 21.8984C1242.75 22.0677 1242.54 22.2357 1242.34 22.4023C1242.14 22.569 1241.95 22.7363 1241.78 22.9043C1241.62 23.0723 1241.49 23.2474 1241.41 23.4297H1244.23V24H1240.56ZM1245.41 24V23.4336H1247.13V19.4453C1247.08 19.5495 1246.99 19.6478 1246.87 19.7402C1246.74 19.8327 1246.6 19.9128 1246.43 19.9805C1246.27 20.0482 1246.1 20.1022 1245.91 20.1426C1245.73 20.1829 1245.55 20.2031 1245.38 20.2031V19.625C1245.57 19.625 1245.76 19.6029 1245.95 19.5586C1246.13 19.5143 1246.31 19.4525 1246.47 19.373C1246.63 19.2936 1246.77 19.1992 1246.9 19.0898C1247.02 18.9805 1247.12 18.8607 1247.19 18.7305H1247.83V23.4336H1249.21V24H1245.41ZM1253.12 19.7617C1253.12 19.9154 1253.09 20.0599 1253.03 20.1953C1252.97 20.3307 1252.89 20.4486 1252.79 20.5488C1252.69 20.6491 1252.57 20.7285 1252.43 20.7871C1252.3 20.8457 1252.15 20.875 1252 20.875C1251.84 20.875 1251.7 20.8457 1251.56 20.7871C1251.43 20.7285 1251.31 20.6491 1251.21 20.5488C1251.11 20.4486 1251.03 20.3307 1250.97 20.1953C1250.91 20.0599 1250.88 19.9154 1250.88 19.7617C1250.88 19.6055 1250.91 19.4596 1250.97 19.3242C1251.03 19.1888 1251.11 19.071 1251.21 18.9707C1251.31 18.8704 1251.43 18.7917 1251.56 18.7344C1251.7 18.6771 1251.84 18.6484 1252 18.6484C1252.15 18.6484 1252.3 18.6771 1252.43 18.7344C1252.57 18.7917 1252.69 18.8704 1252.79 18.9707C1252.89 19.071 1252.97 19.1888 1253.03 19.3242C1253.09 19.4596 1253.12 19.6055 1253.12 19.7617ZM1252.69 19.7617C1252.69 19.6628 1252.68 19.571 1252.64 19.4863C1252.61 19.4017 1252.56 19.3275 1252.49 19.2637C1252.43 19.1999 1252.36 19.1497 1252.27 19.1133C1252.19 19.0768 1252.1 19.0586 1252 19.0586C1251.9 19.0586 1251.81 19.0768 1251.73 19.1133C1251.64 19.1497 1251.57 19.1999 1251.51 19.2637C1251.44 19.3275 1251.39 19.4017 1251.36 19.4863C1251.32 19.571 1251.3 19.6628 1251.3 19.7617C1251.3 19.8581 1251.32 19.9486 1251.36 20.0332C1251.39 20.1178 1251.44 20.1921 1251.51 20.2559C1251.57 20.3197 1251.64 20.3704 1251.73 20.4082C1251.81 20.446 1251.9 20.4648 1252 20.4648C1252.1 20.4648 1252.19 20.446 1252.27 20.4082C1252.36 20.3704 1252.43 20.3197 1252.49 20.2559C1252.56 20.1921 1252.61 20.1178 1252.64 20.0332C1252.68 19.9486 1252.69 19.8581 1252.69 19.7617ZM1259.83 24V18.7305H1263.42V19.3398H1260.58V20.9883H1263.19V21.5898H1260.58V23.3906H1263.58V24H1259.83Z" fill="#DADADA"/>
<path d="M19.7383 1004L18.3086 1001.75H17.3789V1004H16.6328V998.73H18.5156C18.8281 998.73 19.1009 998.764 19.334 998.83C19.5671 998.896 19.7611 998.993 19.916 999.119C20.071 999.245 20.1868 999.398 20.2637 999.578C20.3405 999.758 20.3789 999.961 20.3789 1000.19C20.3789 1000.35 20.3535 1000.51 20.3027 1000.67C20.252 1000.83 20.1719 1000.98 20.0625 1001.11C19.9531 1001.25 19.8138 1001.36 19.6445 1001.46C19.4753 1001.56 19.2721 1001.63 19.0352 1001.67L20.5977 1004H19.7383ZM19.6289 1000.2C19.6289 999.618 19.2331 999.328 18.4414 999.328H17.3789V1001.16H18.4727C18.6888 1001.16 18.8704 1001.14 19.0176 1001.09C19.1647 1001.03 19.2832 1000.96 19.373 1000.88C19.4629 1000.79 19.528 1000.69 19.5684 1000.57C19.6087 1000.45 19.6289 1000.33 19.6289 1000.2ZM21.4336 1004V998.73H25.0234V999.34H22.1797V1000.99H24.7891V1001.59H22.1797V1003.39H25.1836V1004H21.4336ZM27.1055 999.34V1001.27H29.7461V1001.89H27.1055V1004H26.3594V998.73H29.8398V999.34H27.1055ZM32.3398 1004V1002.83H33.2578V1004H32.3398ZM32.3398 1000.94V999.773H33.2578V1000.94H32.3398ZM44.043 1004L43.5039 1002.51H41.3047L40.7695 1004H40.0039L41.9961 998.73H42.8438L44.8008 1004H44.043ZM42.7422 1000.27C42.7083 1000.17 42.6732 1000.07 42.6367 999.973C42.6003 999.871 42.5671 999.775 42.5371 999.684C42.5072 999.592 42.4811 999.512 42.459 999.443C42.4368 999.374 42.4206 999.324 42.4102 999.293C42.3997 999.324 42.3841 999.375 42.3633 999.445C42.3424 999.516 42.3171 999.596 42.2871 999.688C42.2572 999.779 42.2259 999.875 42.1934 999.977C42.1608 1000.08 42.1276 1000.18 42.0938 1000.27L41.5039 1001.93H43.3125L42.7422 1000.27ZM48.543 1004L47.1133 1001.75H46.1836V1004H45.4375V998.73H47.3203C47.6328 998.73 47.9056 998.764 48.1387 998.83C48.3717 998.896 48.5658 998.993 48.7207 999.119C48.8757 999.245 48.9915 999.398 49.0684 999.578C49.1452 999.758 49.1836 999.961 49.1836 1000.19C49.1836 1000.35 49.1582 1000.51 49.1074 1000.67C49.0566 1000.83 48.9766 1000.98 48.8672 1001.11C48.7578 1001.25 48.6185 1001.36 48.4492 1001.46C48.2799 1001.56 48.0768 1001.63 47.8398 1001.67L49.4023 1004H48.543ZM48.4336 1000.2C48.4336 999.618 48.0378 999.328 47.2461 999.328H46.1836V1001.16H47.2773C47.4935 1001.16 47.6751 1001.14 47.8223 1001.09C47.9694 1001.03 48.0879 1000.96 48.1777 1000.88C48.2676 1000.79 48.3327 1000.69 48.373 1000.57C48.4134 1000.45 48.4336 1000.33 48.4336 1000.2ZM50.832 1001.34C50.832 1001.68 50.8581 1001.98 50.9102 1002.25C50.9622 1002.51 51.043 1002.74 51.1523 1002.92C51.2617 1003.1 51.4017 1003.24 51.5723 1003.33C51.7428 1003.43 51.9479 1003.47 52.1875 1003.47C52.3516 1003.47 52.4993 1003.44 52.6309 1003.38C52.7624 1003.32 52.8796 1003.23 52.9824 1003.13C53.0853 1003.03 53.1745 1002.91 53.25 1002.78C53.3255 1002.65 53.3906 1002.51 53.4453 1002.37L54.0664 1002.62C53.9935 1002.81 53.9036 1002.99 53.7969 1003.16C53.6901 1003.33 53.5612 1003.49 53.4102 1003.62C53.2591 1003.76 53.0827 1003.87 52.8809 1003.95C52.679 1004.04 52.4453 1004.08 52.1797 1004.08C51.8125 1004.08 51.4954 1004.01 51.2285 1003.88C50.9616 1003.75 50.7402 1003.56 50.5645 1003.32C50.3887 1003.08 50.2585 1002.8 50.1738 1002.46C50.0892 1002.12 50.0469 1001.75 50.0469 1001.34C50.0469 1000.91 50.0885 1000.52 50.1719 1000.19C50.2552 999.855 50.3828 999.574 50.5547 999.346C50.7266 999.118 50.944 998.945 51.207 998.826C51.4701 998.708 51.7812 998.648 52.1406 998.648C52.4036 998.648 52.6341 998.684 52.832 998.756C53.0299 998.827 53.2012 998.924 53.3457 999.045C53.4902 999.166 53.6126 999.305 53.7129 999.463C53.8132 999.62 53.8958 999.785 53.9609 999.957L53.3047 1000.21C53.2656 1000.09 53.2122 999.974 53.1445 999.859C53.0768 999.745 52.9954 999.643 52.9004 999.555C52.8053 999.466 52.6947 999.395 52.5684 999.34C52.4421 999.285 52.3008 999.258 52.1445 999.258C51.9128 999.258 51.7142 999.302 51.5488 999.391C51.3835 999.479 51.2474 999.611 51.1406 999.787C51.0339 999.963 50.9557 1000.18 50.9062 1000.44C50.8568 1000.7 50.832 1001 50.832 1001.34ZM57.8242 1004V1001.57H55.7852V1004H55.0391V998.73H55.7852V1000.94H57.8242V998.73H58.5703V1004H57.8242ZM59.1875 1004.86V1004.48H64.0234V1004.86H59.1875ZM68.3164 1001.36C68.3164 1001.87 68.2663 1002.3 68.166 1002.64C68.0658 1002.99 67.929 1003.27 67.7559 1003.48C67.5827 1003.69 67.3789 1003.85 67.1445 1003.94C66.9102 1004.03 66.6602 1004.08 66.3945 1004.08C66.1263 1004.08 65.8763 1004.03 65.6445 1003.94C65.4128 1003.85 65.2116 1003.69 65.041 1003.48C64.8704 1003.27 64.7363 1002.99 64.6387 1002.64C64.541 1002.3 64.4922 1001.87 64.4922 1001.36C64.4922 1000.83 64.541 1000.39 64.6387 1000.04C64.7363 999.694 64.8711 999.416 65.043 999.209C65.2148 999.002 65.418 998.857 65.6523 998.773C65.8867 998.69 66.1419 998.648 66.418 998.648C66.681 998.648 66.9277 998.69 67.1582 998.773C67.3887 998.857 67.5898 999.002 67.7617 999.209C67.9336 999.416 68.069 999.694 68.168 1000.04C68.2669 1000.39 68.3164 1000.83 68.3164 1001.36ZM67.6016 1001.36C67.6016 1000.95 67.5755 1000.6 67.5234 1000.33C67.4714 1000.05 67.3945 999.832 67.293 999.668C67.1914 999.504 67.0671 999.388 66.9199 999.32C66.7728 999.253 66.6055 999.219 66.418 999.219C66.2201 999.219 66.0456 999.253 65.8945 999.322C65.7435 999.391 65.6165 999.508 65.5137 999.672C65.4108 999.836 65.3333 1000.06 65.2812 1000.33C65.2292 1000.6 65.2031 1000.95 65.2031 1001.36C65.2031 1001.76 65.2298 1002.1 65.2832 1002.38C65.3366 1002.65 65.4147 1002.87 65.5176 1003.04C65.6204 1003.2 65.7461 1003.32 65.8945 1003.39C66.043 1003.47 66.2122 1003.5 66.4023 1003.5C66.5872 1003.5 66.7539 1003.47 66.9023 1003.39C67.0508 1003.32 67.1764 1003.2 67.2793 1003.04C67.3822 1002.87 67.4616 1002.65 67.5176 1002.38C67.5736 1002.1 67.6016 1001.76 67.6016 1001.36ZM65.9453 1001.83V1000.86H66.8633V1001.83H65.9453ZM73.1172 1001.36C73.1172 1001.87 73.0671 1002.3 72.9668 1002.64C72.8665 1002.99 72.7298 1003.27 72.5566 1003.48C72.3835 1003.69 72.1797 1003.85 71.9453 1003.94C71.7109 1004.03 71.4609 1004.08 71.1953 1004.08C70.9271 1004.08 70.6771 1004.03 70.4453 1003.94C70.2135 1003.85 70.0124 1003.69 69.8418 1003.48C69.6712 1003.27 69.5371 1002.99 69.4395 1002.64C69.3418 1002.3 69.293 1001.87 69.293 1001.36C69.293 1000.83 69.3418 1000.39 69.4395 1000.04C69.5371 999.694 69.6719 999.416 69.8438 999.209C70.0156 999.002 70.2188 998.857 70.4531 998.773C70.6875 998.69 70.9427 998.648 71.2188 998.648C71.4818 998.648 71.7285 998.69 71.959 998.773C72.1895 998.857 72.3906 999.002 72.5625 999.209C72.7344 999.416 72.8698 999.694 72.9688 1000.04C73.0677 1000.39 73.1172 1000.83 73.1172 1001.36ZM72.4023 1001.36C72.4023 1000.95 72.3763 1000.6 72.3242 1000.33C72.2721 1000.05 72.1953 999.832 72.0938 999.668C71.9922 999.504 71.8678 999.388 71.7207 999.32C71.5736 999.253 71.4062 999.219 71.2188 999.219C71.0208 999.219 70.8464 999.253 70.6953 999.322C70.5443 999.391 70.4173 999.508 70.3145 999.672C70.2116 999.836 70.1341 1000.06 70.082 1000.33C70.0299 1000.6 70.0039 1000.95 70.0039 1001.36C70.0039 1001.76 70.0306 1002.1 70.084 1002.38C70.1374 1002.65 70.2155 1002.87 70.3184 1003.04C70.4212 1003.2 70.5469 1003.32 70.6953 1003.39C70.8438 1003.47 71.013 1003.5 71.2031 1003.5C71.388 1003.5 71.5547 1003.47 71.7031 1003.39C71.8516 1003.32 71.9772 1003.2 72.0801 1003.04C72.1829 1002.87 72.2624 1002.65 72.3184 1002.38C72.3743 1002.1 72.4023 1001.76 72.4023 1001.36ZM70.7461 1001.83V1000.86H71.6641V1001.83H70.7461ZM74.2227 1004V1003.43H75.9375V999.445C75.888 999.549 75.8008 999.648 75.6758 999.74C75.5508 999.833 75.4069 999.913 75.2441 999.98C75.0814 1000.05 74.9076 1000.1 74.7227 1000.14C74.5378 1000.18 74.3594 1000.2 74.1875 1000.2V999.625C74.3802 999.625 74.5697 999.603 74.7559 999.559C74.9421 999.514 75.1159 999.452 75.2773 999.373C75.4388 999.294 75.582 999.199 75.707 999.09C75.832 998.98 75.9284 998.861 75.9961 998.73H76.6445V1003.43H78.0234V1004H74.2227Z" fill="#DADADA"/>
<path d="M1191.6 1002.55C1191.6 1002.78 1191.56 1002.98 1191.48 1003.17C1191.39 1003.35 1191.27 1003.51 1191.11 1003.65C1190.94 1003.78 1190.73 1003.89 1190.48 1003.96C1190.22 1004.04 1189.92 1004.08 1189.57 1004.08C1188.96 1004.08 1188.49 1003.96 1188.15 1003.72C1187.81 1003.48 1187.59 1003.13 1187.5 1002.68L1188.22 1002.54C1188.25 1002.68 1188.3 1002.81 1188.36 1002.93C1188.42 1003.04 1188.51 1003.14 1188.62 1003.23C1188.73 1003.31 1188.86 1003.38 1189.02 1003.43C1189.18 1003.47 1189.37 1003.5 1189.59 1003.5C1189.78 1003.5 1189.95 1003.48 1190.11 1003.44C1190.26 1003.41 1190.39 1003.35 1190.5 1003.28C1190.62 1003.2 1190.7 1003.11 1190.76 1002.99C1190.83 1002.87 1190.86 1002.73 1190.86 1002.57C1190.86 1002.38 1190.82 1002.24 1190.73 1002.12C1190.65 1002.01 1190.53 1001.91 1190.4 1001.84C1190.26 1001.77 1190.1 1001.71 1189.93 1001.66C1189.76 1001.62 1189.58 1001.57 1189.4 1001.53C1189.27 1001.49 1189.14 1001.46 1189.01 1001.42C1188.88 1001.38 1188.75 1001.34 1188.63 1001.29C1188.51 1001.24 1188.39 1001.18 1188.29 1001.11C1188.18 1001.04 1188.09 1000.96 1188.01 1000.86C1187.93 1000.76 1187.87 1000.65 1187.82 1000.51C1187.78 1000.38 1187.76 1000.23 1187.76 1000.05C1187.76 999.805 1187.8 999.59 1187.9 999.412C1187.99 999.234 1188.12 999.088 1188.28 998.975C1188.45 998.861 1188.64 998.779 1188.87 998.727C1189.09 998.674 1189.33 998.648 1189.59 998.648C1189.89 998.648 1190.15 998.675 1190.36 998.729C1190.58 998.782 1190.76 998.862 1190.9 998.969C1191.05 999.076 1191.17 999.208 1191.26 999.365C1191.34 999.523 1191.42 999.706 1191.47 999.914L1190.73 1000.04C1190.7 999.91 1190.66 999.792 1190.61 999.688C1190.55 999.583 1190.48 999.496 1190.38 999.426C1190.29 999.355 1190.18 999.302 1190.05 999.266C1189.92 999.229 1189.77 999.211 1189.59 999.211C1189.38 999.211 1189.21 999.232 1189.06 999.275C1188.92 999.318 1188.81 999.377 1188.73 999.451C1188.64 999.525 1188.58 999.613 1188.54 999.715C1188.5 999.816 1188.48 999.926 1188.48 1000.04C1188.48 1000.2 1188.52 1000.33 1188.59 1000.42C1188.66 1000.52 1188.75 1000.6 1188.87 1000.67C1188.99 1000.73 1189.12 1000.78 1189.28 1000.82C1189.44 1000.87 1189.61 1000.91 1189.79 1000.96C1189.93 1000.99 1190.08 1001.03 1190.22 1001.07C1190.37 1001.11 1190.51 1001.16 1190.64 1001.21C1190.78 1001.27 1190.9 1001.33 1191.02 1001.41C1191.13 1001.48 1191.23 1001.57 1191.32 1001.68C1191.4 1001.79 1191.47 1001.91 1191.52 1002.05C1191.57 1002.2 1191.6 1002.36 1191.6 1002.55ZM1194.76 999.34V1004H1194.02V999.34H1192.29V998.73H1196.49V999.34H1194.76ZM1200.83 1004L1200.29 1002.51H1198.09L1197.56 1004H1196.79L1198.78 998.73H1199.63L1201.59 1004H1200.83ZM1199.53 1000.27C1199.5 1000.17 1199.46 1000.07 1199.42 999.973C1199.39 999.871 1199.35 999.775 1199.32 999.684C1199.29 999.592 1199.27 999.512 1199.25 999.443C1199.22 999.374 1199.21 999.324 1199.2 999.293C1199.19 999.324 1199.17 999.375 1199.15 999.445C1199.13 999.516 1199.1 999.596 1199.07 999.688C1199.04 999.779 1199.01 999.875 1198.98 999.977C1198.95 1000.08 1198.92 1000.18 1198.88 1000.27L1198.29 1001.93H1200.1L1199.53 1000.27ZM1205.25 1004V1000.61C1205.25 1000.48 1205.25 1000.34 1205.25 1000.2C1205.26 1000.07 1205.26 999.939 1205.26 999.824C1205.27 999.691 1205.27 999.561 1205.28 999.434C1205.23 999.577 1205.19 999.717 1205.14 999.855C1205.11 999.973 1205.07 1000.1 1205.02 1000.23C1204.98 1000.36 1204.94 1000.47 1204.9 1000.57L1204.26 1002.28H1203.73L1203.08 1000.57C1203.06 1000.53 1203.05 1000.49 1203.03 1000.43C1203.01 1000.38 1202.99 1000.32 1202.97 1000.26C1202.95 1000.2 1202.93 1000.14 1202.91 1000.07C1202.89 1000.01 1202.87 999.945 1202.85 999.883C1202.8 999.74 1202.76 999.59 1202.71 999.434C1202.71 999.559 1202.71 999.689 1202.71 999.824C1202.72 999.941 1202.72 1000.07 1202.72 1000.21C1202.72 1000.34 1202.72 1000.48 1202.72 1000.61V1004H1202.1V998.73H1203.02L1203.74 1000.64C1203.77 1000.7 1203.79 1000.78 1203.82 1000.88C1203.85 1000.98 1203.88 1001.08 1203.91 1001.18C1203.94 1001.29 1203.98 1001.42 1204.01 1001.54C1204.05 1001.42 1204.08 1001.3 1204.11 1001.19C1204.14 1001.1 1204.17 1001 1204.2 1000.89C1204.23 1000.79 1204.26 1000.71 1204.28 1000.64L1205.01 998.73H1205.89V1004H1205.25ZM1210.76 1000.31C1210.76 1000.53 1210.73 1000.74 1210.65 1000.94C1210.57 1001.14 1210.45 1001.32 1210.3 1001.48C1210.14 1001.63 1209.94 1001.76 1209.71 1001.85C1209.47 1001.95 1209.19 1001.99 1208.87 1001.99H1207.77V1004H1207.03V998.73H1208.82C1209.15 998.73 1209.43 998.768 1209.67 998.844C1209.92 998.919 1210.12 999.026 1210.28 999.164C1210.44 999.302 1210.56 999.468 1210.64 999.662C1210.72 999.856 1210.76 1000.07 1210.76 1000.31ZM1210.01 1000.32C1210.01 999.995 1209.91 999.748 1209.69 999.58C1209.48 999.412 1209.16 999.328 1208.73 999.328H1207.77V1001.4H1208.76C1208.98 1001.4 1209.16 1001.37 1209.32 1001.32C1209.48 1001.26 1209.61 1001.19 1209.71 1001.09C1209.81 1000.99 1209.89 1000.88 1209.94 1000.75C1209.99 1000.61 1210.01 1000.47 1210.01 1000.32ZM1213.13 1004V1002.83H1214.05V1004H1213.13ZM1213.13 1000.94V999.773H1214.05V1000.94H1213.13ZM1225.2 1002.55C1225.2 1002.78 1225.16 1002.98 1225.08 1003.17C1225 1003.35 1224.88 1003.51 1224.71 1003.65C1224.55 1003.78 1224.34 1003.89 1224.08 1003.96C1223.83 1004.04 1223.53 1004.08 1223.18 1004.08C1222.57 1004.08 1222.09 1003.96 1221.75 1003.72C1221.41 1003.48 1221.2 1003.13 1221.1 1002.68L1221.83 1002.54C1221.86 1002.68 1221.9 1002.81 1221.97 1002.93C1222.03 1003.04 1222.12 1003.14 1222.23 1003.23C1222.33 1003.31 1222.47 1003.38 1222.63 1003.43C1222.79 1003.47 1222.98 1003.5 1223.2 1003.5C1223.39 1003.5 1223.56 1003.48 1223.71 1003.44C1223.87 1003.41 1224 1003.35 1224.11 1003.28C1224.22 1003.2 1224.31 1003.11 1224.37 1002.99C1224.43 1002.87 1224.46 1002.73 1224.46 1002.57C1224.46 1002.38 1224.42 1002.24 1224.34 1002.12C1224.25 1002.01 1224.14 1001.91 1224 1001.84C1223.86 1001.77 1223.71 1001.71 1223.54 1001.66C1223.36 1001.62 1223.19 1001.57 1223.01 1001.53C1222.88 1001.49 1222.75 1001.46 1222.62 1001.42C1222.48 1001.38 1222.36 1001.34 1222.23 1001.29C1222.11 1001.24 1222 1001.18 1221.89 1001.11C1221.79 1001.04 1221.69 1000.96 1221.61 1000.86C1221.53 1000.76 1221.47 1000.65 1221.43 1000.51C1221.38 1000.38 1221.36 1000.23 1221.36 1000.05C1221.36 999.805 1221.41 999.59 1221.5 999.412C1221.6 999.234 1221.73 999.088 1221.89 998.975C1222.05 998.861 1222.25 998.779 1222.47 998.727C1222.7 998.674 1222.94 998.648 1223.2 998.648C1223.5 998.648 1223.76 998.675 1223.97 998.729C1224.18 998.782 1224.36 998.862 1224.51 998.969C1224.66 999.076 1224.77 999.208 1224.86 999.365C1224.95 999.523 1225.02 999.706 1225.07 999.914L1224.34 1000.04C1224.31 999.91 1224.27 999.792 1224.21 999.688C1224.16 999.583 1224.08 999.496 1223.99 999.426C1223.9 999.355 1223.78 999.302 1223.65 999.266C1223.52 999.229 1223.37 999.211 1223.19 999.211C1222.99 999.211 1222.81 999.232 1222.67 999.275C1222.53 999.318 1222.42 999.377 1222.33 999.451C1222.24 999.525 1222.18 999.613 1222.15 999.715C1222.11 999.816 1222.09 999.926 1222.09 1000.04C1222.09 1000.2 1222.12 1000.33 1222.19 1000.42C1222.26 1000.52 1222.35 1000.6 1222.47 1000.67C1222.59 1000.73 1222.73 1000.78 1222.89 1000.82C1223.04 1000.87 1223.21 1000.91 1223.39 1000.96C1223.54 1000.99 1223.68 1001.03 1223.83 1001.07C1223.97 1001.11 1224.11 1001.16 1224.25 1001.21C1224.38 1001.27 1224.51 1001.33 1224.62 1001.41C1224.74 1001.48 1224.84 1001.57 1224.92 1001.68C1225.01 1001.79 1225.08 1001.91 1225.13 1002.05C1225.18 1002.2 1225.2 1002.36 1225.2 1002.55ZM1228.37 999.34V1004H1227.62V999.34H1225.89V998.73H1230.1V999.34H1228.37ZM1234.44 1004L1233.9 1002.51H1231.7L1231.16 1004H1230.4L1232.39 998.73H1233.24L1235.19 1004H1234.44ZM1233.14 1000.27C1233.1 1000.17 1233.07 1000.07 1233.03 999.973C1232.99 999.871 1232.96 999.775 1232.93 999.684C1232.9 999.592 1232.87 999.512 1232.85 999.443C1232.83 999.374 1232.81 999.324 1232.8 999.293C1232.79 999.324 1232.78 999.375 1232.76 999.445C1232.74 999.516 1232.71 999.596 1232.68 999.688C1232.65 999.779 1232.62 999.875 1232.59 999.977C1232.55 1000.08 1232.52 1000.18 1232.49 1000.27L1231.9 1001.93H1233.71L1233.14 1000.27ZM1239.7 1002.52C1239.7 1002.78 1239.64 1003.01 1239.53 1003.2C1239.42 1003.39 1239.28 1003.54 1239.09 1003.66C1238.91 1003.78 1238.69 1003.86 1238.45 1003.92C1238.2 1003.97 1237.95 1004 1237.67 1004H1235.83V998.73H1237.44C1237.74 998.73 1238.02 998.755 1238.26 998.805C1238.5 998.854 1238.7 998.93 1238.87 999.033C1239.03 999.136 1239.16 999.268 1239.25 999.43C1239.33 999.591 1239.38 999.784 1239.38 1000.01C1239.38 1000.15 1239.36 1000.29 1239.31 1000.42C1239.27 1000.56 1239.2 1000.67 1239.12 1000.78C1239.03 1000.88 1238.92 1000.98 1238.79 1001.05C1238.66 1001.13 1238.51 1001.19 1238.33 1001.22C1238.55 1001.25 1238.75 1001.29 1238.92 1001.37C1239.09 1001.44 1239.23 1001.53 1239.35 1001.65C1239.46 1001.76 1239.55 1001.89 1239.61 1002.04C1239.67 1002.18 1239.7 1002.34 1239.7 1002.52ZM1238.63 1000.1C1238.63 999.823 1238.53 999.624 1238.33 999.506C1238.14 999.387 1237.84 999.328 1237.45 999.328H1236.58V1000.95H1237.46C1237.67 1000.95 1237.85 1000.93 1237.99 1000.89C1238.14 1000.85 1238.26 1000.79 1238.36 1000.72C1238.45 1000.65 1238.52 1000.56 1238.56 1000.45C1238.61 1000.35 1238.63 1000.23 1238.63 1000.1ZM1238.94 1002.45C1238.94 1002.29 1238.91 1002.15 1238.84 1002.03C1238.78 1001.92 1238.68 1001.82 1238.56 1001.75C1238.44 1001.67 1238.3 1001.62 1238.13 1001.59C1237.96 1001.55 1237.77 1001.54 1237.56 1001.54H1236.58V1003.4H1237.62C1237.81 1003.4 1237.98 1003.39 1238.15 1003.36C1238.31 1003.33 1238.45 1003.28 1238.57 1003.2C1238.69 1003.13 1238.78 1003.03 1238.84 1002.91C1238.91 1002.79 1238.94 1002.63 1238.94 1002.45ZM1240.92 1004V998.73H1241.67V1003.39H1244.3V1004H1240.92ZM1245.43 1004V998.73H1249.02V999.34H1246.18V1000.99H1248.79V1001.59H1246.18V1003.39H1249.18V1004H1245.43ZM1250.9 1002.19V1001.56H1253.09V1002.19H1250.9ZM1257.19 1004H1256.41L1254.44 998.73H1255.23L1256.48 1002.25C1256.52 1002.37 1256.56 1002.49 1256.59 1002.62C1256.63 1002.75 1256.67 1002.86 1256.7 1002.97C1256.73 1003.1 1256.77 1003.22 1256.8 1003.34C1256.83 1003.23 1256.87 1003.11 1256.9 1002.98C1256.94 1002.87 1256.97 1002.76 1257.01 1002.63C1257.05 1002.5 1257.09 1002.38 1257.13 1002.25L1258.37 998.73H1259.16L1257.19 1004ZM1259.76 1004V1003.54C1259.88 1003.29 1260.03 1003.06 1260.22 1002.84C1260.4 1002.63 1260.6 1002.43 1260.82 1002.24C1261.03 1002.05 1261.24 1001.87 1261.46 1001.7C1261.67 1001.53 1261.87 1001.36 1262.04 1001.19C1262.21 1001.02 1262.35 1000.85 1262.46 1000.68C1262.57 1000.5 1262.63 1000.32 1262.63 1000.13C1262.63 999.973 1262.6 999.838 1262.55 999.725C1262.5 999.611 1262.43 999.518 1262.34 999.443C1262.24 999.369 1262.13 999.314 1262.01 999.279C1261.88 999.244 1261.74 999.227 1261.59 999.227C1261.45 999.227 1261.32 999.246 1261.2 999.285C1261.07 999.324 1260.97 999.383 1260.88 999.461C1260.79 999.539 1260.71 999.636 1260.65 999.752C1260.6 999.868 1260.56 1000 1260.54 1000.16L1259.82 1000.09C1259.85 999.892 1259.9 999.706 1259.98 999.531C1260.07 999.357 1260.18 999.204 1260.32 999.072C1260.47 998.941 1260.65 998.837 1260.86 998.762C1261.07 998.686 1261.31 998.648 1261.59 998.648C1261.86 998.648 1262.11 998.68 1262.32 998.742C1262.54 998.805 1262.73 998.896 1262.88 999.018C1263.03 999.139 1263.15 999.289 1263.23 999.469C1263.31 999.648 1263.35 999.854 1263.35 1000.09C1263.35 1000.33 1263.29 1000.56 1263.18 1000.77C1263.07 1000.98 1262.93 1001.18 1262.75 1001.36C1262.57 1001.55 1262.38 1001.73 1262.17 1001.9C1261.95 1002.07 1261.74 1002.24 1261.54 1002.4C1261.34 1002.57 1261.15 1002.74 1260.99 1002.9C1260.82 1003.07 1260.7 1003.25 1260.61 1003.43H1263.44V1004H1259.76Z" fill="#DADADA"/>
</g>
<path d="M416.582 436L408.86 409.818H416.786L420.366 425.926H420.57L424.815 409.818H431.053L435.298 425.977H435.502L439.082 409.818H447.008L439.286 436H432.485L428.036 421.375H427.832L423.383 436H416.582ZM451.252 436H443.581L452.223 409.818H461.939L470.581 436H462.911L457.183 417.028H456.979L451.252 436ZM449.82 425.67H464.24V430.989H449.82V425.67ZM471.303 436V409.818H482.604C484.547 409.818 486.247 410.172 487.705 410.879C489.162 411.587 490.296 412.605 491.105 413.935C491.915 415.264 492.32 416.858 492.32 418.716C492.32 420.591 491.902 422.172 491.067 423.459C490.24 424.746 489.077 425.717 487.577 426.374C486.085 427.03 484.343 427.358 482.348 427.358H475.598V421.835H480.916C481.752 421.835 482.463 421.733 483.051 421.528C483.648 421.315 484.104 420.979 484.419 420.518C484.743 420.058 484.905 419.457 484.905 418.716C484.905 417.966 484.743 417.357 484.419 416.888C484.104 416.411 483.648 416.061 483.051 415.839C482.463 415.609 481.752 415.494 480.916 415.494H478.411V436H471.303ZM486.644 423.983L493.189 436H485.468L479.075 423.983H486.644ZM509.044 409.818H516.152V426.591C516.152 428.585 515.675 430.311 514.72 431.768C513.774 433.217 512.453 434.338 510.757 435.131C509.061 435.915 507.092 436.307 504.851 436.307C502.592 436.307 500.615 435.915 498.919 435.131C497.223 434.338 495.902 433.217 494.956 431.768C494.018 430.311 493.55 428.585 493.55 426.591V409.818H500.658V425.977C500.658 426.787 500.837 427.511 501.195 428.151C501.552 428.781 502.047 429.276 502.677 429.634C503.317 429.991 504.041 430.17 504.851 430.17C505.669 430.17 506.393 429.991 507.024 429.634C507.655 429.276 508.149 428.781 508.507 428.151C508.865 427.511 509.044 426.787 509.044 425.977V409.818ZM540.383 409.818V436H534.452L524.991 422.244H524.838V436H517.73V409.818H523.764L533.071 423.523H533.276V409.818H540.383ZM558.949 418.46C558.838 418.009 558.663 417.612 558.424 417.271C558.186 416.922 557.887 416.628 557.53 416.389C557.18 416.142 556.771 415.959 556.302 415.839C555.842 415.712 555.335 415.648 554.781 415.648C553.588 415.648 552.569 415.933 551.726 416.504C550.89 417.075 550.251 417.898 549.808 418.972C549.373 420.045 549.156 421.341 549.156 422.858C549.156 424.392 549.365 425.705 549.782 426.795C550.2 427.886 550.822 428.722 551.649 429.301C552.476 429.881 553.503 430.17 554.73 430.17C555.812 430.17 556.711 430.013 557.427 429.697C558.152 429.382 558.693 428.935 559.051 428.355C559.409 427.776 559.588 427.094 559.588 426.31L560.815 426.438H554.832V421.375H566.44V425.006C566.44 427.392 565.933 429.433 564.919 431.129C563.913 432.817 562.524 434.112 560.751 435.016C558.987 435.911 556.963 436.358 554.679 436.358C552.13 436.358 549.893 435.817 547.967 434.734C546.041 433.652 544.537 432.109 543.454 430.107C542.38 428.104 541.843 425.722 541.843 422.96C541.843 420.795 542.172 418.878 542.828 417.207C543.493 415.537 544.413 414.126 545.589 412.976C546.765 411.817 548.125 410.943 549.667 410.355C551.21 409.759 552.863 409.46 554.628 409.46C556.179 409.46 557.619 409.682 558.949 410.125C560.287 410.56 561.467 411.182 562.49 411.991C563.521 412.793 564.352 413.743 564.983 414.842C565.613 415.942 565.997 417.148 566.133 418.46H558.949ZM573.326 409.818H582.173L588.258 424.648H588.565L594.65 409.818H603.497V436H596.542V420.864H596.338L590.508 435.795H586.315L580.485 420.761H580.281V436H573.326V409.818ZM611.866 436H604.196L612.838 409.818H622.554L631.196 436H623.525L617.798 417.028H617.594L611.866 436ZM610.435 425.67H624.855V430.989H610.435V425.67ZM641.991 436H631.918V409.818H641.889C644.582 409.818 646.909 410.342 648.869 411.391C650.838 412.43 652.355 413.93 653.42 415.891C654.494 417.842 655.031 420.182 655.031 422.909C655.031 425.636 654.499 427.98 653.433 429.94C652.368 431.892 650.859 433.392 648.908 434.44C646.956 435.48 644.651 436 641.991 436ZM639.026 429.966H641.736C643.031 429.966 644.135 429.757 645.047 429.339C645.967 428.922 646.666 428.202 647.143 427.179C647.629 426.156 647.872 424.733 647.872 422.909C647.872 421.085 647.625 419.662 647.131 418.639C646.645 417.616 645.929 416.896 644.983 416.479C644.045 416.061 642.895 415.852 641.531 415.852H639.026V429.966ZM672.014 409.818H679.122V426.591C679.122 428.585 678.645 430.311 677.69 431.768C676.744 433.217 675.423 434.338 673.727 435.131C672.031 435.915 670.063 436.307 667.821 436.307C665.563 436.307 663.585 435.915 661.889 435.131C660.193 434.338 658.872 433.217 657.926 431.768C656.989 430.311 656.52 428.585 656.52 426.591V409.818H663.628V425.977C663.628 426.787 663.807 427.511 664.165 428.151C664.523 428.781 665.017 429.276 665.648 429.634C666.287 429.991 667.011 430.17 667.821 430.17C668.639 430.17 669.364 429.991 669.994 429.634C670.625 429.276 671.119 428.781 671.477 428.151C671.835 427.511 672.014 426.787 672.014 425.977V409.818ZM680.7 436V409.818H692.002C693.945 409.818 695.645 410.172 697.102 410.879C698.56 411.587 699.693 412.605 700.503 413.935C701.313 415.264 701.717 416.858 701.717 418.716C701.717 420.591 701.3 422.172 700.465 423.459C699.638 424.746 698.475 425.717 696.975 426.374C695.483 427.03 693.74 427.358 691.746 427.358H684.996V421.835H690.314C691.149 421.835 691.861 421.733 692.449 421.528C693.046 421.315 693.502 420.979 693.817 420.518C694.141 420.058 694.303 419.457 694.303 418.716C694.303 417.966 694.141 417.357 693.817 416.888C693.502 416.411 693.046 416.061 692.449 415.839C691.861 415.609 691.149 415.494 690.314 415.494H687.808V436H680.7ZM696.041 423.983L702.587 436H694.865L688.473 423.983H696.041ZM709.748 436H702.078L710.72 409.818H720.436L729.078 436H721.407L715.68 417.028H715.476L709.748 436ZM708.317 425.67H722.737V430.989H708.317V425.67ZM734.456 415.545V409.818H757.211V415.545H749.336V436H742.331V415.545H734.456ZM761.583 436H753.912L762.554 409.818H772.27L780.912 436H773.242L767.515 417.028H767.31L761.583 436ZM760.151 425.67H774.571V430.989H760.151V425.67ZM804.287 409.818V436H798.356L788.895 422.244H788.742V436H781.634V409.818H787.668L796.975 423.523H797.179V409.818H804.287ZM816.639 409.818H823.645V427.767C823.637 429.472 823.206 430.972 822.354 432.267C821.51 433.554 820.343 434.56 818.851 435.284C817.368 436 815.659 436.358 813.725 436.358C812.046 436.358 810.512 436.068 809.122 435.489C807.733 434.901 806.625 433.98 805.798 432.727C804.972 431.466 804.563 429.83 804.571 427.818H811.679C811.705 428.474 811.816 429.028 812.012 429.48C812.216 429.932 812.497 430.273 812.855 430.503C813.222 430.724 813.665 430.835 814.185 430.835C814.713 430.835 815.156 430.72 815.514 430.49C815.881 430.26 816.158 429.919 816.345 429.467C816.533 429.007 816.631 428.44 816.639 427.767V409.818ZM840.708 409.818H847.816V426.591C847.816 428.585 847.339 430.311 846.384 431.768C845.438 433.217 844.117 434.338 842.421 435.131C840.725 435.915 838.756 436.307 836.515 436.307C834.256 436.307 832.279 435.915 830.583 435.131C828.887 434.338 827.566 433.217 826.62 431.768C825.682 430.311 825.214 428.585 825.214 426.591V409.818H832.322V425.977C832.322 426.787 832.501 427.511 832.859 428.151C833.217 428.781 833.711 429.276 834.342 429.634C834.981 429.991 835.705 430.17 836.515 430.17C837.333 430.17 838.057 429.991 838.688 429.634C839.319 429.276 839.813 428.781 840.171 428.151C840.529 427.511 840.708 426.787 840.708 425.977V409.818ZM849.394 436V409.818H860.695C862.638 409.818 864.339 410.172 865.796 410.879C867.254 411.587 868.387 412.605 869.197 413.935C870.006 415.264 870.411 416.858 870.411 418.716C870.411 420.591 869.994 422.172 869.158 423.459C868.332 424.746 867.168 425.717 865.668 426.374C864.177 427.03 862.434 427.358 860.44 427.358H853.69V421.835H859.008C859.843 421.835 860.555 421.733 861.143 421.528C861.739 421.315 862.195 420.979 862.511 420.518C862.834 420.058 862.996 419.457 862.996 418.716C862.996 417.966 862.834 417.357 862.511 416.888C862.195 416.411 861.739 416.061 861.143 415.839C860.555 415.609 859.843 415.494 859.008 415.494H856.502V436H849.394ZM864.735 423.983L871.28 436H863.559L857.167 423.983H864.735Z" fill="black"/>
<rect x="420" y="456" width="204" height="1" fill="#C6C6C6"/>
<rect x="656" y="456" width="204" height="1" fill="#C6C6C6"/>
<g filter="url(#filter0_d_82_2)">
<rect x="420" y="512" width="440" height="460" fill="white" shape-rendering="crispEdges"/>
<rect x="420.5" y="512.5" width="439" height="459" stroke="#C6C6C6" shape-rendering="crispEdges"/>
<path d="M465.247 574H461.469L466.376 559.455H471.057L475.964 574H472.186L468.77 563.119H468.656L465.247 574ZM464.743 568.276H472.641V570.946H464.743V568.276ZM482.407 574H477.031V559.455H482.4C483.882 559.455 485.158 559.746 486.228 560.328C487.303 560.906 488.131 561.739 488.714 562.828C489.296 563.912 489.587 565.21 489.587 566.72C489.587 568.235 489.296 569.537 488.714 570.626C488.136 571.715 487.31 572.551 486.235 573.134C485.16 573.711 483.884 574 482.407 574ZM480.546 571.003H482.272C483.086 571.003 483.775 570.866 484.339 570.591C484.907 570.312 485.335 569.859 485.624 569.234C485.918 568.605 486.065 567.767 486.065 566.72C486.065 565.674 485.918 564.84 485.624 564.22C485.331 563.595 484.897 563.145 484.325 562.871C483.756 562.591 483.056 562.452 482.222 562.452H480.546V571.003ZM491.14 559.455H495.494L499.187 568.46H499.357L503.05 559.455H507.404V574H503.981V565.065H503.86L500.366 573.908H498.178L494.684 565.016H494.563V574H491.14V559.455ZM512.613 559.455V574H509.097V559.455H512.613ZM526.699 559.455V574H523.716L517.928 565.605H517.835V574H514.32V559.455H517.345L523.07 567.835H523.19V559.455H526.699ZM532.206 574V559.455H535.722V571.145H541.773V574H532.206ZM556.255 566.727C556.255 568.328 555.948 569.684 555.332 570.797C554.717 571.91 553.883 572.755 552.832 573.332C551.786 573.91 550.611 574.199 549.309 574.199C548.002 574.199 546.826 573.908 545.779 573.325C544.733 572.743 543.902 571.898 543.287 570.79C542.676 569.677 542.37 568.323 542.37 566.727C542.37 565.127 542.676 563.77 543.287 562.658C543.902 561.545 544.733 560.7 545.779 560.122C546.826 559.545 548.002 559.256 549.309 559.256C550.611 559.256 551.786 559.545 552.832 560.122C553.883 560.7 554.717 561.545 555.332 562.658C555.948 563.77 556.255 565.127 556.255 566.727ZM552.662 566.727C552.662 565.78 552.527 564.98 552.257 564.327C551.992 563.673 551.608 563.179 551.106 562.842C550.609 562.506 550.01 562.338 549.309 562.338C548.613 562.338 548.014 562.506 547.512 562.842C547.011 563.179 546.625 563.673 546.355 564.327C546.09 564.98 545.957 565.78 545.957 566.727C545.957 567.674 546.09 568.474 546.355 569.128C546.625 569.781 547.011 570.276 547.512 570.612C548.014 570.948 548.613 571.116 549.309 571.116C550.01 571.116 550.609 570.948 551.106 570.612C551.608 570.276 551.992 569.781 552.257 569.128C552.527 568.474 552.662 567.674 552.662 566.727ZM567.353 564.206C567.273 563.908 567.154 563.645 566.998 563.418C566.842 563.186 566.65 562.989 566.423 562.828C566.196 562.667 565.935 562.546 565.642 562.466C565.348 562.381 565.026 562.338 564.676 562.338C563.97 562.338 563.359 562.509 562.843 562.849C562.332 563.19 561.937 563.687 561.657 564.341C561.378 564.99 561.238 565.778 561.238 566.706C561.238 567.639 561.373 568.434 561.643 569.092C561.913 569.75 562.304 570.252 562.815 570.598C563.326 570.944 563.947 571.116 564.676 571.116C565.32 571.116 565.864 571.012 566.309 570.804C566.759 570.591 567.1 570.29 567.332 569.902C567.564 569.514 567.68 569.057 567.68 568.531L568.333 568.609H564.797V566.045H571.068V567.97C571.068 569.272 570.791 570.387 570.237 571.315C569.688 572.243 568.93 572.956 567.964 573.453C567.003 573.95 565.897 574.199 564.647 574.199C563.26 574.199 562.041 573.898 560.99 573.297C559.939 572.696 559.119 571.839 558.532 570.726C557.945 569.608 557.652 568.283 557.652 566.749C557.652 565.555 557.829 564.497 558.184 563.574C558.539 562.646 559.034 561.86 559.669 561.216C560.308 560.572 561.047 560.084 561.885 559.753C562.727 559.421 563.634 559.256 564.605 559.256C565.448 559.256 566.231 559.376 566.956 559.618C567.685 559.859 568.329 560.2 568.887 560.641C569.451 561.081 569.908 561.604 570.258 562.21C570.609 562.816 570.826 563.482 570.912 564.206H567.353ZM576.156 559.455V574H572.64V559.455H576.156ZM590.242 559.455V574H587.259L581.471 565.605H581.378V574H577.863V559.455H580.888L586.613 567.835H586.733V559.455H590.242Z" fill="black"/>
<path d="M466.124 616.727H467.662V621.45C467.662 621.981 467.535 622.445 467.282 622.842C467.031 623.24 466.679 623.55 466.227 623.773C465.775 623.993 465.248 624.103 464.647 624.103C464.043 624.103 463.515 623.993 463.063 623.773C462.611 623.55 462.259 623.24 462.009 622.842C461.758 622.445 461.632 621.981 461.632 621.45V616.727H463.17V621.319C463.17 621.596 463.23 621.842 463.351 622.058C463.474 622.273 463.647 622.442 463.869 622.565C464.092 622.688 464.351 622.75 464.647 622.75C464.945 622.75 465.205 622.688 465.425 622.565C465.647 622.442 465.819 622.273 465.94 622.058C466.063 621.842 466.124 621.596 466.124 621.319V616.727ZM473.872 618.819C473.844 618.532 473.722 618.31 473.507 618.151C473.291 617.993 472.999 617.913 472.629 617.913C472.378 617.913 472.167 617.949 471.994 618.02C471.821 618.089 471.688 618.184 471.596 618.308C471.506 618.431 471.461 618.57 471.461 618.727C471.456 618.857 471.484 618.97 471.543 619.067C471.604 619.165 471.688 619.249 471.795 619.32C471.901 619.388 472.025 619.449 472.164 619.501C472.304 619.55 472.453 619.593 472.612 619.629L473.265 619.785C473.582 619.856 473.874 619.951 474.139 620.069C474.404 620.187 474.633 620.333 474.828 620.506C475.022 620.679 475.172 620.882 475.279 621.116C475.387 621.351 475.443 621.62 475.445 621.923C475.443 622.368 475.329 622.754 475.105 623.08C474.882 623.405 474.56 623.657 474.139 623.837C473.72 624.014 473.214 624.103 472.622 624.103C472.035 624.103 471.524 624.013 471.088 623.833C470.655 623.653 470.316 623.387 470.073 623.034C469.831 622.679 469.704 622.24 469.693 621.717H471.181C471.197 621.96 471.267 622.164 471.39 622.327C471.516 622.488 471.682 622.61 471.891 622.693C472.102 622.774 472.339 622.814 472.605 622.814C472.865 622.814 473.091 622.776 473.283 622.7C473.477 622.625 473.627 622.519 473.734 622.384C473.84 622.249 473.894 622.094 473.894 621.919C473.894 621.756 473.845 621.618 473.748 621.507C473.653 621.396 473.514 621.301 473.329 621.223C473.147 621.145 472.923 621.074 472.658 621.01L471.866 620.811C471.253 620.662 470.769 620.429 470.414 620.112C470.058 619.794 469.882 619.367 469.884 618.83C469.882 618.389 469.999 618.004 470.236 617.675C470.475 617.346 470.803 617.089 471.22 616.905C471.636 616.72 472.11 616.628 472.64 616.628C473.18 616.628 473.651 616.72 474.053 616.905C474.458 617.089 474.773 617.346 474.998 617.675C475.223 618.004 475.339 618.386 475.346 618.819H473.872ZM477.48 624V616.727H482.38V617.995H479.017V619.728H482.128V620.996H479.017V622.732H482.395V624H477.48ZM484.603 624V616.727H487.472C488.021 616.727 488.49 616.826 488.878 617.022C489.269 617.216 489.566 617.492 489.77 617.849C489.976 618.205 490.079 618.622 490.079 619.103C490.079 619.586 489.974 620.001 489.766 620.349C489.558 620.695 489.256 620.96 488.861 621.145C488.468 621.33 487.992 621.422 487.433 621.422H485.512V620.186H487.184C487.478 620.186 487.722 620.146 487.916 620.065C488.11 619.985 488.255 619.864 488.349 619.703C488.446 619.542 488.495 619.342 488.495 619.103C488.495 618.862 488.446 618.658 488.349 618.492C488.255 618.326 488.109 618.201 487.912 618.116C487.718 618.028 487.473 617.984 487.177 617.984H486.14V624H484.603ZM488.53 620.69L490.338 624H488.64L486.872 620.69H488.53ZM498.248 616.727V624H496.92L493.756 619.423H493.703V624H492.165V616.727H493.515L496.654 621.301H496.718V616.727H498.248ZM501.772 624H500.125L502.635 616.727H504.617L507.124 624H505.476L503.654 618.389H503.598L501.772 624ZM501.669 621.141H505.561V622.342H501.669V621.141ZM508.999 616.727H510.896L512.898 621.614H512.984L514.987 616.727H516.883V624H515.391V619.266H515.331L513.449 623.964H512.433L510.551 619.249H510.491V624H508.999V616.727ZM519.15 624V616.727H524.05V617.995H520.687V619.728H523.798V620.996H520.687V622.732H524.064V624H519.15Z" fill="black"/>
<rect x="461.5" y="636.5" width="357" height="47" fill="white"/>
<rect x="461.5" y="636.5" width="357" height="47" stroke="#C6C6C6"/>
<g clip-path="url(#clip1_82_2)">
<path d="M483.837 662.333V657.864H485.328V665.5H483.866V664.178H483.787C483.611 664.585 483.33 664.925 482.942 665.197C482.557 665.465 482.078 665.599 481.505 665.599C481.014 665.599 480.58 665.492 480.202 665.276C479.828 665.058 479.533 664.734 479.317 664.307C479.105 663.879 478.999 663.351 478.999 662.721V657.864H480.486V662.542C480.486 663.062 480.63 663.477 480.918 663.785C481.207 664.093 481.581 664.247 482.042 664.247C482.32 664.247 482.597 664.178 482.872 664.038C483.151 663.899 483.381 663.689 483.563 663.407C483.749 663.125 483.84 662.767 483.837 662.333ZM493.048 659.728L491.7 659.967C491.644 659.794 491.555 659.63 491.432 659.474C491.313 659.319 491.15 659.191 490.945 659.092C490.739 658.992 490.482 658.942 490.174 658.942C489.753 658.942 489.402 659.037 489.12 659.226C488.838 659.411 488.698 659.652 488.698 659.947C488.698 660.202 488.792 660.407 488.981 660.563C489.17 660.719 489.475 660.847 489.896 660.946L491.109 661.224C491.811 661.387 492.335 661.637 492.68 661.975C493.025 662.313 493.197 662.752 493.197 663.293C493.197 663.75 493.064 664.158 492.799 664.516C492.537 664.87 492.171 665.149 491.7 665.351C491.233 665.553 490.691 665.654 490.075 665.654C489.22 665.654 488.522 665.472 487.982 665.107C487.441 664.739 487.11 664.217 486.987 663.541L488.424 663.322C488.514 663.697 488.698 663.98 488.976 664.173C489.254 664.362 489.617 664.456 490.065 664.456C490.552 664.456 490.941 664.355 491.233 664.153C491.525 663.947 491.671 663.697 491.671 663.402C491.671 663.163 491.581 662.963 491.402 662.8C491.227 662.638 490.956 662.515 490.592 662.433L489.299 662.149C488.587 661.987 488.06 661.728 487.718 661.374C487.38 661.019 487.211 660.57 487.211 660.026C487.211 659.576 487.337 659.181 487.589 658.843C487.841 658.505 488.189 658.241 488.633 658.053C489.077 657.86 489.586 657.764 490.159 657.764C490.985 657.764 491.634 657.943 492.108 658.301C492.582 658.656 492.895 659.131 493.048 659.728ZM498.123 665.654C497.37 665.654 496.722 665.493 496.179 665.172C495.638 664.847 495.221 664.391 494.926 663.805C494.634 663.215 494.488 662.524 494.488 661.732C494.488 660.949 494.634 660.26 494.926 659.663C495.221 659.067 495.632 658.601 496.159 658.266C496.689 657.932 497.309 657.764 498.018 657.764C498.449 657.764 498.867 657.835 499.271 657.978C499.675 658.121 500.038 658.344 500.36 658.649C500.681 658.954 500.935 659.35 501.12 659.837C501.306 660.321 501.399 660.91 501.399 661.602V662.129H495.328V661.016H499.942C499.942 660.625 499.863 660.278 499.703 659.977C499.544 659.672 499.321 659.431 499.032 659.256C498.747 659.08 498.413 658.992 498.028 658.992C497.61 658.992 497.246 659.095 496.934 659.3C496.626 659.503 496.387 659.768 496.218 660.096C496.053 660.421 495.97 660.774 495.97 661.155V662.025C495.97 662.535 496.059 662.969 496.238 663.327C496.421 663.685 496.674 663.959 496.999 664.148C497.324 664.333 497.703 664.426 498.137 664.426C498.419 664.426 498.676 664.386 498.908 664.307C499.14 664.224 499.341 664.101 499.51 663.939C499.679 663.777 499.808 663.576 499.897 663.337L501.304 663.591C501.192 664.005 500.989 664.368 500.698 664.68C500.409 664.988 500.047 665.228 499.609 665.401C499.175 665.57 498.679 665.654 498.123 665.654ZM503.048 665.5V657.864H504.485V659.077H504.564C504.704 658.666 504.949 658.343 505.3 658.107C505.655 657.869 506.056 657.749 506.503 657.749C506.596 657.749 506.706 657.753 506.831 657.759C506.961 657.766 507.062 657.774 507.135 657.784V659.206C507.075 659.189 506.969 659.171 506.817 659.151C506.664 659.128 506.512 659.116 506.359 659.116C506.008 659.116 505.695 659.191 505.42 659.34C505.148 659.486 504.932 659.69 504.773 659.952C504.614 660.21 504.535 660.505 504.535 660.837V665.5H503.048ZM509.908 660.966V665.5H508.421V657.864H509.848V659.107H509.942C510.118 658.702 510.393 658.377 510.768 658.132C511.146 657.887 511.621 657.764 512.195 657.764C512.715 657.764 513.171 657.874 513.562 658.092C513.953 658.308 514.256 658.629 514.472 659.057C514.687 659.484 514.795 660.013 514.795 660.643V665.5H513.308V660.822C513.308 660.268 513.164 659.836 512.876 659.524C512.587 659.209 512.191 659.052 511.688 659.052C511.343 659.052 511.036 659.126 510.768 659.276C510.503 659.425 510.292 659.643 510.136 659.932C509.984 660.217 509.908 660.562 509.908 660.966ZM519.011 665.669C518.527 665.669 518.089 665.58 517.698 665.401C517.307 665.218 516.997 664.955 516.768 664.61C516.543 664.265 516.43 663.843 516.43 663.342C516.43 662.911 516.513 662.557 516.679 662.278C516.845 662 517.068 661.78 517.35 661.617C517.632 661.455 517.947 661.332 518.295 661.249C518.643 661.166 518.997 661.103 519.359 661.06C519.816 661.007 520.187 660.964 520.472 660.931C520.757 660.895 520.964 660.837 521.094 660.757C521.223 660.678 521.288 660.548 521.288 660.369V660.335C521.288 659.9 521.165 659.564 520.92 659.325C520.678 659.087 520.317 658.967 519.836 658.967C519.335 658.967 518.941 659.078 518.653 659.3C518.368 659.519 518.17 659.763 518.061 660.031L516.664 659.713C516.83 659.249 517.072 658.875 517.39 658.589C517.711 658.301 518.081 658.092 518.499 657.963C518.916 657.83 519.355 657.764 519.816 657.764C520.121 657.764 520.444 657.801 520.786 657.874C521.13 657.943 521.452 658.072 521.75 658.261C522.052 658.45 522.299 658.72 522.491 659.072C522.683 659.42 522.779 659.872 522.779 660.429V665.5H521.327V664.456H521.268C521.172 664.648 521.027 664.837 520.835 665.023C520.643 665.208 520.396 665.362 520.094 665.485C519.793 665.608 519.432 665.669 519.011 665.669ZM519.334 664.476C519.745 664.476 520.096 664.395 520.388 664.232C520.683 664.07 520.906 663.858 521.059 663.596C521.215 663.331 521.293 663.047 521.293 662.746V661.761C521.24 661.814 521.137 661.864 520.984 661.911C520.835 661.954 520.665 661.992 520.472 662.025C520.28 662.055 520.093 662.083 519.911 662.109C519.728 662.133 519.576 662.152 519.453 662.169C519.165 662.205 518.901 662.267 518.663 662.353C518.427 662.439 518.238 662.563 518.096 662.726C517.957 662.885 517.887 663.097 517.887 663.362C517.887 663.73 518.023 664.009 518.295 664.197C518.567 664.383 518.913 664.476 519.334 664.476ZM524.759 665.5V657.864H526.186V659.107H526.28C526.439 658.686 526.7 658.357 527.061 658.122C527.422 657.884 527.855 657.764 528.358 657.764C528.869 657.764 529.296 657.884 529.641 658.122C529.989 658.361 530.246 658.689 530.412 659.107H530.491C530.674 658.699 530.964 658.374 531.361 658.132C531.759 657.887 532.233 657.764 532.783 657.764C533.476 657.764 534.041 657.981 534.479 658.415C534.919 658.85 535.14 659.504 535.14 660.379V665.5H533.653V660.518C533.653 660.001 533.512 659.627 533.231 659.395C532.949 659.163 532.613 659.047 532.221 659.047C531.738 659.047 531.361 659.196 531.093 659.494C530.824 659.789 530.69 660.169 530.69 660.633V665.5H529.209V660.424C529.209 660.01 529.079 659.677 528.821 659.425C528.562 659.173 528.226 659.047 527.812 659.047C527.53 659.047 527.27 659.121 527.031 659.271C526.796 659.416 526.605 659.62 526.459 659.882C526.317 660.144 526.246 660.447 526.246 660.792V665.5H524.759ZM540.423 665.654C539.671 665.654 539.023 665.493 538.479 665.172C537.939 664.847 537.522 664.391 537.227 663.805C536.935 663.215 536.789 662.524 536.789 661.732C536.789 660.949 536.935 660.26 537.227 659.663C537.522 659.067 537.933 658.601 538.46 658.266C538.99 657.932 539.61 657.764 540.319 657.764C540.75 657.764 541.167 657.835 541.572 657.978C541.976 658.121 542.339 658.344 542.661 658.649C542.982 658.954 543.236 659.35 543.421 659.837C543.607 660.321 543.7 660.91 543.7 661.602V662.129H537.629V661.016H542.243C542.243 660.625 542.163 660.278 542.004 659.977C541.845 659.672 541.621 659.431 541.333 659.256C541.048 659.08 540.713 658.992 540.329 658.992C539.911 658.992 539.547 659.095 539.235 659.3C538.927 659.503 538.688 659.768 538.519 660.096C538.353 660.421 538.271 660.774 538.271 661.155V662.025C538.271 662.535 538.36 662.969 538.539 663.327C538.721 663.685 538.975 663.959 539.3 664.148C539.625 664.333 540.004 664.426 540.438 664.426C540.72 664.426 540.977 664.386 541.209 664.307C541.441 664.224 541.641 664.101 541.81 663.939C541.979 663.777 542.109 663.576 542.198 663.337L543.605 663.591C543.492 664.005 543.29 664.368 542.999 664.68C542.71 664.988 542.347 665.228 541.91 665.401C541.476 665.57 540.98 665.654 540.423 665.654Z" fill="#DADADA"/>
</g>
<path d="M797.375 651.25C796.651 651.25 796.032 650.993 795.52 650.48C795.007 649.968 794.75 649.349 794.75 648.625C794.75 647.901 795.007 647.282 795.52 646.769C796.032 646.256 796.651 646 797.375 646C798.099 646 798.718 646.256 799.231 646.769C799.744 647.282 800 647.901 800 648.625C800 649.349 799.744 649.968 799.231 650.48C798.718 650.993 798.099 651.25 797.375 651.25ZM791.75 656.961V655.294C791.75 654.927 791.85 654.587 792.049 654.274C792.249 653.961 792.515 653.72 792.849 653.552C793.59 653.188 794.338 652.916 795.093 652.734C795.847 652.552 796.608 652.462 797.375 652.462C798.142 652.462 798.903 652.552 799.657 652.734C800.412 652.916 801.16 653.188 801.901 653.552C802.235 653.72 802.501 653.961 802.701 654.274C802.9 654.587 803 654.927 803 655.294V656.961H791.75ZM792.875 655.836H801.875V655.294C801.875 655.142 801.831 655.002 801.743 654.872C801.655 654.743 801.536 654.637 801.385 654.556C800.738 654.237 800.08 653.996 799.408 653.832C798.736 653.668 798.059 653.586 797.375 653.586C796.691 653.586 796.014 653.668 795.342 653.832C794.67 653.996 794.012 654.237 793.365 654.556C793.214 654.637 793.095 654.743 793.007 654.872C792.919 655.002 792.875 655.142 792.875 655.294V655.836ZM797.375 650.125C797.788 650.125 798.141 649.978 798.434 649.684C798.728 649.391 798.875 649.037 798.875 648.625C798.875 648.212 798.728 647.859 798.434 647.566C798.141 647.272 797.788 647.125 797.375 647.125C796.963 647.125 796.609 647.272 796.316 647.566C796.022 647.859 795.875 648.212 795.875 648.625C795.875 649.037 796.022 649.391 796.316 649.684C796.609 649.978 796.963 650.125 797.375 650.125Z" fill="#DADADA"/>
<path d="M461.632 719V711.727H464.501C465.053 711.727 465.523 711.833 465.911 712.043C466.299 712.252 466.595 712.542 466.799 712.913C467.005 713.283 467.108 713.709 467.108 714.192C467.108 714.675 467.004 715.101 466.795 715.47C466.587 715.839 466.285 716.127 465.89 716.333C465.497 716.539 465.021 716.642 464.462 716.642H462.634V715.41H464.214C464.51 715.41 464.754 715.359 464.945 715.257C465.139 715.153 465.284 715.01 465.379 714.827C465.476 714.643 465.524 714.431 465.524 714.192C465.524 713.95 465.476 713.74 465.379 713.56C465.284 713.377 465.139 713.237 464.945 713.137C464.751 713.035 464.505 712.984 464.207 712.984H463.17V719H461.632ZM469.52 719H467.873L470.383 711.727H472.365L474.872 719H473.224L471.403 713.389H471.346L469.52 719ZM469.417 716.141H473.309V717.342H469.417V716.141ZM480.527 713.819C480.498 713.532 480.376 713.31 480.161 713.151C479.945 712.993 479.653 712.913 479.284 712.913C479.033 712.913 478.821 712.949 478.648 713.02C478.475 713.089 478.343 713.184 478.25 713.308C478.16 713.431 478.115 713.57 478.115 713.727C478.111 713.857 478.138 713.97 478.197 714.067C478.259 714.165 478.343 714.249 478.449 714.32C478.556 714.388 478.679 714.449 478.819 714.501C478.958 714.55 479.107 714.593 479.266 714.629L479.919 714.785C480.237 714.856 480.528 714.951 480.793 715.069C481.058 715.187 481.288 715.333 481.482 715.506C481.676 715.679 481.826 715.882 481.933 716.116C482.042 716.351 482.097 716.62 482.1 716.923C482.097 717.368 481.984 717.754 481.759 718.08C481.536 718.405 481.214 718.657 480.793 718.837C480.374 719.014 479.868 719.103 479.277 719.103C478.69 719.103 478.178 719.013 477.743 718.833C477.309 718.653 476.971 718.387 476.727 718.034C476.485 717.679 476.359 717.24 476.347 716.717H477.835C477.851 716.96 477.921 717.164 478.044 717.327C478.17 717.488 478.337 717.61 478.545 717.693C478.756 717.774 478.994 717.814 479.259 717.814C479.519 717.814 479.745 717.776 479.937 717.7C480.131 717.625 480.282 717.519 480.388 717.384C480.495 717.249 480.548 717.094 480.548 716.919C480.548 716.756 480.499 716.618 480.402 716.507C480.308 716.396 480.168 716.301 479.983 716.223C479.801 716.145 479.577 716.074 479.312 716.01L478.52 715.811C477.907 715.662 477.423 715.429 477.068 715.112C476.713 714.794 476.536 714.367 476.539 713.83C476.536 713.389 476.654 713.004 476.89 712.675C477.129 712.346 477.457 712.089 477.874 711.905C478.291 711.72 478.764 711.628 479.294 711.628C479.834 711.628 480.305 711.72 480.708 711.905C481.113 712.089 481.427 712.346 481.652 712.675C481.877 713.004 481.993 713.386 482 713.819H480.527ZM488.079 713.819C488.051 713.532 487.929 713.31 487.714 713.151C487.498 712.993 487.206 712.913 486.836 712.913C486.586 712.913 486.374 712.949 486.201 713.02C486.028 713.089 485.895 713.184 485.803 713.308C485.713 713.431 485.668 713.57 485.668 713.727C485.663 713.857 485.691 713.97 485.75 714.067C485.811 714.165 485.895 714.249 486.002 714.32C486.108 714.388 486.232 714.449 486.371 714.501C486.511 714.55 486.66 714.593 486.819 714.629L487.472 714.785C487.789 714.856 488.081 714.951 488.346 715.069C488.611 715.187 488.84 715.333 489.035 715.506C489.229 715.679 489.379 715.882 489.486 716.116C489.595 716.351 489.65 716.62 489.653 716.923C489.65 717.368 489.537 717.754 489.312 718.08C489.089 718.405 488.767 718.657 488.346 718.837C487.927 719.014 487.421 719.103 486.829 719.103C486.242 719.103 485.731 719.013 485.295 718.833C484.862 718.653 484.523 718.387 484.28 718.034C484.038 717.679 483.912 717.24 483.9 716.717H485.388C485.404 716.96 485.474 717.164 485.597 717.327C485.723 717.488 485.89 717.61 486.098 717.693C486.309 717.774 486.546 717.814 486.812 717.814C487.072 717.814 487.298 717.776 487.49 717.7C487.684 717.625 487.834 717.519 487.941 717.384C488.047 717.249 488.101 717.094 488.101 716.919C488.101 716.756 488.052 716.618 487.955 716.507C487.86 716.396 487.721 716.301 487.536 716.223C487.354 716.145 487.13 716.074 486.865 716.01L486.073 715.811C485.46 715.662 484.976 715.429 484.621 715.112C484.265 714.794 484.089 714.367 484.091 713.83C484.089 713.389 484.206 713.004 484.443 712.675C484.682 712.346 485.01 712.089 485.427 711.905C485.843 711.72 486.317 711.628 486.847 711.628C487.387 711.628 487.858 711.72 488.26 711.905C488.665 712.089 488.98 712.346 489.205 712.675C489.43 713.004 489.546 713.386 489.553 713.819H488.079ZM493.324 719L491.243 711.727H492.923L494.126 716.781H494.187L495.515 711.727H496.953L498.278 716.791H498.342L499.545 711.727H501.225L499.144 719H497.646L496.261 714.245H496.204L494.822 719H493.324ZM509.321 715.364C509.321 716.157 509.171 716.831 508.87 717.388C508.572 717.944 508.165 718.369 507.649 718.663C507.135 718.954 506.557 719.099 505.916 719.099C505.269 719.099 504.689 718.953 504.176 718.659C503.662 718.366 503.256 717.941 502.958 717.384C502.659 716.828 502.51 716.154 502.51 715.364C502.51 714.571 502.659 713.896 502.958 713.339C503.256 712.783 503.662 712.359 504.176 712.068C504.689 711.775 505.269 711.628 505.916 711.628C506.557 711.628 507.135 711.775 507.649 712.068C508.165 712.359 508.572 712.783 508.87 713.339C509.171 713.896 509.321 714.571 509.321 715.364ZM507.762 715.364C507.762 714.85 507.685 714.417 507.531 714.064C507.38 713.711 507.166 713.444 506.889 713.261C506.612 713.079 506.287 712.988 505.916 712.988C505.544 712.988 505.22 713.079 504.943 713.261C504.666 713.444 504.45 713.711 504.296 714.064C504.145 714.417 504.069 714.85 504.069 715.364C504.069 715.877 504.145 716.311 504.296 716.663C504.45 717.016 504.666 717.284 504.943 717.466C505.22 717.648 505.544 717.739 505.916 717.739C506.287 717.739 506.612 717.648 506.889 717.466C507.166 717.284 507.38 717.016 507.531 716.663C507.685 716.311 507.762 715.877 507.762 715.364ZM511.46 719V711.727H514.33C514.879 711.727 515.348 711.826 515.736 712.022C516.126 712.216 516.424 712.492 516.627 712.849C516.833 713.205 516.936 713.622 516.936 714.103C516.936 714.586 516.832 715.001 516.624 715.349C516.415 715.695 516.113 715.96 515.718 716.145C515.325 716.33 514.849 716.422 514.29 716.422H512.369V715.186H514.042C514.335 715.186 514.579 715.146 514.773 715.065C514.968 714.985 515.112 714.864 515.207 714.703C515.304 714.542 515.352 714.342 515.352 714.103C515.352 713.862 515.304 713.658 515.207 713.492C515.112 713.326 514.966 713.201 514.77 713.116C514.576 713.028 514.331 712.984 514.035 712.984H512.998V719H511.46ZM515.388 715.69L517.195 719H515.498L513.729 715.69H515.388ZM521.601 719H519.023V711.727H521.622C522.354 711.727 522.983 711.873 523.511 712.164C524.039 712.453 524.445 712.868 524.729 713.411C525.016 713.953 525.159 714.601 525.159 715.357C525.159 716.114 525.016 716.765 524.729 717.31C524.445 717.854 524.037 718.272 523.504 718.563C522.974 718.854 522.339 719 521.601 719ZM520.56 717.683H521.537C521.991 717.683 522.374 717.602 522.684 717.441C522.996 717.278 523.231 717.026 523.387 716.685C523.546 716.341 523.625 715.899 523.625 715.357C523.625 714.819 523.546 714.38 523.387 714.039C523.231 713.698 522.998 713.447 522.688 713.286C522.377 713.125 521.995 713.045 521.54 713.045H520.56V717.683Z" fill="black"/>
<rect x="461.5" y="731.5" width="357" height="47" fill="white"/>
<rect x="461.5" y="731.5" width="357" height="47" stroke="#C6C6C6"/>
<g clip-path="url(#clip2_82_2)">
<path d="M481.709 758.631C481.308 758.631 480.942 758.533 480.61 758.337C480.279 758.138 480.013 757.873 479.815 757.542C479.619 757.21 479.521 756.844 479.521 756.443C479.521 756.039 479.619 755.673 479.815 755.344C480.013 755.013 480.279 754.75 480.61 754.554C480.942 754.355 481.308 754.256 481.709 754.256C482.113 754.256 482.479 754.355 482.808 754.554C483.139 754.75 483.402 755.013 483.598 755.344C483.797 755.673 483.896 756.039 483.896 756.443C483.896 756.844 483.797 757.21 483.598 757.542C483.402 757.873 483.139 758.138 482.808 758.337C482.479 758.533 482.113 758.631 481.709 758.631ZM489.119 758.631C488.718 758.631 488.352 758.533 488.02 758.337C487.689 758.138 487.424 757.873 487.225 757.542C487.029 757.21 486.931 756.844 486.931 756.443C486.931 756.039 487.029 755.673 487.225 755.344C487.424 755.013 487.689 754.75 488.02 754.554C488.352 754.355 488.718 754.256 489.119 754.256C489.523 754.256 489.89 754.355 490.218 754.554C490.549 754.75 490.813 755.013 491.008 755.344C491.207 755.673 491.306 756.039 491.306 756.443C491.306 756.844 491.207 757.21 491.008 757.542C490.813 757.873 490.549 758.138 490.218 758.337C489.89 758.533 489.523 758.631 489.119 758.631ZM496.529 758.631C496.128 758.631 495.762 758.533 495.43 758.337C495.099 758.138 494.834 757.873 494.635 757.542C494.439 757.21 494.342 756.844 494.342 756.443C494.342 756.039 494.439 755.673 494.635 755.344C494.834 755.013 495.099 754.75 495.43 754.554C495.762 754.355 496.128 754.256 496.529 754.256C496.933 754.256 497.3 754.355 497.628 754.554C497.959 754.75 498.223 755.013 498.418 755.344C498.617 755.673 498.717 756.039 498.717 756.443C498.717 756.844 498.617 757.21 498.418 757.542C498.223 757.873 497.959 758.138 497.628 758.337C497.3 758.533 496.933 758.631 496.529 758.631ZM503.939 758.631C503.538 758.631 503.172 758.533 502.841 758.337C502.509 758.138 502.244 757.873 502.045 757.542C501.85 757.21 501.752 756.844 501.752 756.443C501.752 756.039 501.85 755.673 502.045 755.344C502.244 755.013 502.509 754.75 502.841 754.554C503.172 754.355 503.538 754.256 503.939 754.256C504.344 754.256 504.71 754.355 505.038 754.554C505.369 754.75 505.633 755.013 505.828 755.344C506.027 755.673 506.127 756.039 506.127 756.443C506.127 756.844 506.027 757.21 505.828 757.542C505.633 757.873 505.369 758.138 505.038 758.337C504.71 758.533 504.344 758.631 503.939 758.631ZM511.349 758.631C510.948 758.631 510.582 758.533 510.251 758.337C509.919 758.138 509.654 757.873 509.455 757.542C509.26 757.21 509.162 756.844 509.162 756.443C509.162 756.039 509.26 755.673 509.455 755.344C509.654 755.013 509.919 754.75 510.251 754.554C510.582 754.355 510.948 754.256 511.349 754.256C511.754 754.256 512.12 754.355 512.448 754.554C512.78 754.75 513.043 755.013 513.239 755.344C513.438 755.673 513.537 756.039 513.537 756.443C513.537 756.844 513.438 757.21 513.239 757.542C513.043 757.873 512.78 758.138 512.448 758.337C512.12 758.533 511.754 758.631 511.349 758.631ZM518.76 758.631C518.359 758.631 517.992 758.533 517.661 758.337C517.329 758.138 517.064 757.873 516.865 757.542C516.67 757.21 516.572 756.844 516.572 756.443C516.572 756.039 516.67 755.673 516.865 755.344C517.064 755.013 517.329 754.75 517.661 754.554C517.992 754.355 518.359 754.256 518.76 754.256C519.164 754.256 519.53 754.355 519.858 754.554C520.19 754.75 520.453 755.013 520.649 755.344C520.848 755.673 520.947 756.039 520.947 756.443C520.947 756.844 520.848 757.21 520.649 757.542C520.453 757.873 520.19 758.138 519.858 758.337C519.53 758.533 519.164 758.631 518.76 758.631ZM526.17 758.631C525.769 758.631 525.402 758.533 525.071 758.337C524.74 758.138 524.474 757.873 524.276 757.542C524.08 757.21 523.982 756.844 523.982 756.443C523.982 756.039 524.08 755.673 524.276 755.344C524.474 755.013 524.74 754.75 525.071 754.554C525.402 754.355 525.769 754.256 526.17 754.256C526.574 754.256 526.94 754.355 527.268 754.554C527.6 754.75 527.863 755.013 528.059 755.344C528.258 755.673 528.357 756.039 528.357 756.443C528.357 756.844 528.258 757.21 528.059 757.542C527.863 757.873 527.6 758.138 527.268 758.337C526.94 758.533 526.574 758.631 526.17 758.631ZM533.58 758.631C533.179 758.631 532.813 758.533 532.481 758.337C532.15 758.138 531.885 757.873 531.686 757.542C531.49 757.21 531.392 756.844 531.392 756.443C531.392 756.039 531.49 755.673 531.686 755.344C531.885 755.013 532.15 754.75 532.481 754.554C532.813 754.355 533.179 754.256 533.58 754.256C533.984 754.256 534.35 754.355 534.679 754.554C535.01 754.75 535.274 755.013 535.469 755.344C535.668 755.673 535.767 756.039 535.767 756.443C535.767 756.844 535.668 757.21 535.469 757.542C535.274 757.873 535.01 758.138 534.679 758.337C534.35 758.533 533.984 758.631 533.58 758.631ZM540.99 758.631C540.589 758.631 540.223 758.533 539.891 758.337C539.56 758.138 539.295 757.873 539.096 757.542C538.9 757.21 538.803 756.844 538.803 756.443C538.803 756.039 538.9 755.673 539.096 755.344C539.295 755.013 539.56 754.75 539.891 754.554C540.223 754.355 540.589 754.256 540.99 754.256C541.394 754.256 541.761 754.355 542.089 754.554C542.42 754.75 542.684 755.013 542.879 755.344C543.078 755.673 543.178 756.039 543.178 756.443C543.178 756.844 543.078 757.21 542.879 757.542C542.684 757.873 542.42 758.138 542.089 758.337C541.761 758.533 541.394 758.631 540.99 758.631ZM548.4 758.631C547.999 758.631 547.633 758.533 547.301 758.337C546.97 758.138 546.705 757.873 546.506 757.542C546.31 757.21 546.213 756.844 546.213 756.443C546.213 756.039 546.31 755.673 546.506 755.344C546.705 755.013 546.97 754.75 547.301 754.554C547.633 754.355 547.999 754.256 548.4 754.256C548.805 754.256 549.171 754.355 549.499 754.554C549.83 754.75 550.094 755.013 550.289 755.344C550.488 755.673 550.588 756.039 550.588 756.443C550.588 756.844 550.488 757.21 550.289 757.542C550.094 757.873 549.83 758.138 549.499 758.337C549.171 758.533 548.805 758.631 548.4 758.631ZM555.81 758.631C555.409 758.631 555.043 758.533 554.712 758.337C554.38 758.138 554.115 757.873 553.916 757.542C553.721 757.21 553.623 756.844 553.623 756.443C553.623 756.039 553.721 755.673 553.916 755.344C554.115 755.013 554.38 754.75 554.712 754.554C555.043 754.355 555.409 754.256 555.81 754.256C556.215 754.256 556.581 754.355 556.909 754.554C557.241 754.75 557.504 755.013 557.7 755.344C557.898 755.673 557.998 756.039 557.998 756.443C557.998 756.844 557.898 757.21 557.7 757.542C557.504 757.873 557.241 758.138 556.909 758.337C556.581 758.533 556.215 758.631 555.81 758.631ZM563.221 758.631C562.819 758.631 562.453 758.533 562.122 758.337C561.79 758.138 561.525 757.873 561.326 757.542C561.131 757.21 561.033 756.844 561.033 756.443C561.033 756.039 561.131 755.673 561.326 755.344C561.525 755.013 561.79 754.75 562.122 754.554C562.453 754.355 562.819 754.256 563.221 754.256C563.625 754.256 563.991 754.355 564.319 754.554C564.651 754.75 564.914 755.013 565.11 755.344C565.309 755.673 565.408 756.039 565.408 756.443C565.408 756.844 565.309 757.21 565.11 757.542C564.914 757.873 564.651 758.138 564.319 758.337C563.991 758.533 563.625 758.631 563.221 758.631Z" fill="#DADADA"/>
</g>
<path d="M793.106 755.625C792.732 755.625 792.412 755.492 792.147 755.228C791.883 754.963 791.75 754.643 791.75 754.269V747.231C791.75 746.857 791.883 746.537 792.147 746.272C792.412 746.007 792.732 745.875 793.106 745.875H794V744.375C794 743.438 794.328 742.642 794.985 741.985C795.642 741.328 796.439 741 797.375 741C798.312 741 799.108 741.328 799.765 741.985C800.422 742.642 800.75 743.438 800.75 744.375V745.875H801.644C802.018 745.875 802.338 746.007 802.603 746.272C802.868 746.537 803 746.857 803 747.231V754.269C803 754.643 802.868 754.963 802.603 755.228C802.338 755.492 802.018 755.625 801.644 755.625H793.106ZM793.106 754.5H801.644C801.712 754.5 801.767 754.478 801.81 754.435C801.853 754.392 801.875 754.336 801.875 754.269V747.231C801.875 747.163 801.853 747.108 801.81 747.065C801.767 747.022 801.712 747 801.644 747H793.106C793.039 747 792.983 747.022 792.94 747.065C792.897 747.108 792.875 747.163 792.875 747.231V754.269C792.875 754.336 792.897 754.392 792.94 754.435C792.983 754.478 793.039 754.5 793.106 754.5ZM797.375 752.062C797.739 752.062 798.049 751.935 798.305 751.68C798.56 751.424 798.688 751.114 798.688 750.75C798.688 750.386 798.56 750.076 798.305 749.82C798.049 749.565 797.739 749.437 797.375 749.437C797.011 749.437 796.701 749.565 796.445 749.82C796.19 750.076 796.063 750.386 796.063 750.75C796.063 751.114 796.19 751.424 796.445 751.68C796.701 751.935 797.011 752.062 797.375 752.062ZM795.125 745.875H799.625V744.375C799.625 743.75 799.406 743.219 798.969 742.781C798.531 742.344 798 742.125 797.375 742.125C796.75 742.125 796.219 742.344 795.781 742.781C795.344 743.219 795.125 743.75 795.125 744.375V745.875ZM792.875 754.5C792.875 754.5 792.875 754.478 792.875 754.435C792.875 754.392 792.875 754.336 792.875 754.269V747.231C792.875 747.163 792.875 747.108 792.875 747.065C792.875 747.022 792.875 747 792.875 747C792.875 747 792.875 747.022 792.875 747.065C792.875 747.108 792.875 747.163 792.875 747.231V754.269C792.875 754.336 792.875 754.392 792.875 754.435C792.875 754.478 792.875 754.5 792.875 754.5Z" fill="#DADADA"/>
<rect x="461.5" y="859.5" width="357" height="55" fill="black"/>
<rect x="461.5" y="859.5" width="357" height="55" stroke="black"/>
<path d="M602.844 891.105C602.086 891.105 601.425 890.993 600.861 890.769C600.296 890.544 599.858 890.197 599.545 889.729C599.233 889.26 599.074 888.66 599.071 887.93H601.321C601.336 888.195 601.404 888.42 601.523 888.604C601.642 888.787 601.81 888.926 602.027 889.02C602.243 889.113 602.504 889.16 602.809 889.16C603.063 889.16 603.276 889.129 603.447 889.066C603.619 889.004 603.749 888.917 603.837 888.806C603.925 888.694 603.969 888.566 603.969 888.422C603.969 888.289 603.927 888.173 603.843 888.073C603.759 887.974 603.621 887.883 603.43 887.801C603.239 887.719 602.981 887.645 602.656 887.578L601.778 887.391C601.008 887.227 600.402 886.946 599.958 886.55C599.515 886.153 599.293 885.613 599.293 884.93C599.293 884.375 599.444 883.89 599.744 883.474C600.045 883.058 600.46 882.733 600.989 882.501C601.519 882.269 602.129 882.152 602.821 882.152C603.528 882.152 604.138 882.271 604.652 882.507C605.165 882.743 605.562 883.075 605.841 883.503C606.12 883.931 606.262 884.43 606.266 885H603.992C603.973 884.715 603.868 884.493 603.679 884.335C603.489 884.177 603.203 884.098 602.821 884.098C602.578 884.098 602.379 884.126 602.223 884.183C602.067 884.239 601.951 884.318 601.877 884.42C601.803 884.521 601.766 884.637 601.766 884.766C601.766 884.902 601.806 885.022 601.886 885.126C601.966 885.229 602.093 885.319 602.267 885.396C602.441 885.472 602.664 885.539 602.938 885.598L603.653 885.75C604.133 885.852 604.546 885.986 604.892 886.154C605.238 886.322 605.521 886.519 605.741 886.743C605.962 886.968 606.124 887.221 606.228 887.502C606.331 887.783 606.383 888.09 606.383 888.422C606.383 888.996 606.241 889.483 605.958 889.884C605.675 890.284 605.27 890.588 604.742 890.795C604.215 891.002 603.582 891.105 602.844 891.105ZM612.053 882.27V891H609.685V882.27H612.053ZM619.703 891.117C618.855 891.117 618.11 890.937 617.467 890.575C616.825 890.214 616.324 889.699 615.964 889.031C615.605 888.363 615.425 887.57 615.425 886.652C615.425 885.691 615.618 884.876 616.002 884.206C616.387 883.536 616.902 883.026 617.546 882.677C618.191 882.327 618.906 882.152 619.691 882.152C620.206 882.152 620.686 882.226 621.129 882.372C621.573 882.519 621.966 882.727 622.31 882.996C622.654 883.266 622.93 883.583 623.139 883.948C623.348 884.313 623.476 884.715 623.523 885.152H621.132C621.097 885.004 621.039 884.871 620.959 884.754C620.879 884.637 620.78 884.538 620.661 884.458C620.541 884.378 620.405 884.317 620.25 884.276C620.096 884.235 619.925 884.215 619.738 884.215C619.343 884.215 619.005 884.31 618.724 884.499C618.443 884.688 618.229 884.963 618.082 885.322C617.936 885.682 617.863 886.113 617.863 886.617C617.863 887.129 617.933 887.566 618.074 887.93C618.214 888.293 618.422 888.571 618.698 888.765C618.973 888.958 619.316 889.055 619.726 889.055C620.085 889.055 620.385 889.002 620.625 888.896C620.866 888.791 621.045 888.642 621.164 888.448C621.284 888.255 621.343 888.027 621.343 887.766L621.753 887.812H619.761V886.125H623.628V887.332C623.628 888.129 623.46 888.81 623.124 889.374C622.789 889.938 622.325 890.37 621.733 890.669C621.141 890.968 620.464 891.117 619.703 891.117ZM627.03 891V882.27H629.608L631.689 885.697C631.868 885.994 632.036 886.291 632.192 886.588C632.349 886.885 632.5 887.212 632.647 887.569C632.793 887.927 632.942 888.344 633.095 888.82H632.89C632.87 888.504 632.846 888.138 632.816 887.722C632.787 887.306 632.761 886.896 632.737 886.491C632.714 886.087 632.702 885.746 632.702 885.469V882.27H635.14V891H632.562L630.622 887.812C630.403 887.449 630.211 887.11 630.045 886.796C629.879 886.481 629.719 886.148 629.564 885.797C629.41 885.445 629.233 885.039 629.034 884.578H629.28C629.312 884.988 629.342 885.396 629.371 885.803C629.4 886.209 629.424 886.586 629.441 886.934C629.459 887.281 629.468 887.574 629.468 887.812V891H627.03ZM645.822 882.27V891H643.455V882.27H645.822ZM649.347 891V882.27H651.926L654.006 885.697C654.185 885.994 654.353 886.291 654.51 886.588C654.666 886.885 654.817 887.212 654.964 887.569C655.11 887.927 655.26 888.344 655.412 888.82H655.207C655.187 888.504 655.163 888.138 655.134 887.722C655.104 887.306 655.078 886.896 655.055 886.491C655.031 886.087 655.019 885.746 655.019 885.469V882.27H657.457V891H654.879L652.939 887.812C652.721 887.449 652.528 887.11 652.362 886.796C652.196 886.481 652.036 886.148 651.882 885.797C651.727 885.445 651.551 885.039 651.351 884.578H651.597C651.629 884.988 651.659 885.396 651.688 885.803C651.718 886.209 651.741 886.586 651.759 886.934C651.776 887.281 651.785 887.574 651.785 887.812V891H649.347Z" fill="#E4E2E1"/>
<path d="M680.32 887.562H671.225V886.437H680.32L676.048 882.165L676.85 881.375L682.475 887L676.85 892.625L676.048 891.835L680.32 887.562Z" fill="#E4E2E1"/>
</g>
<defs>
<filter id="filter0_d_82_2" x="420" y="512" width="444" height="464" filterUnits="userSpaceOnUse" color-interpolation-filters="sRGB">
<feFlood flood-opacity="0" result="BackgroundImageFix"/>
<feColorMatrix in="SourceAlpha" type="matrix" values="0 0 0 0 0 0 0 0 0 0 0 0 0 0 0 0 0 0 127 0" result="hardAlpha"/>
<feOffset dx="4" dy="4"/>
<feComposite in2="hardAlpha" operator="out"/>
<feColorMatrix type="matrix" values="0 0 0 0 0.854902 0 0 0 0 0.854902 0 0 0 0 0.854902 0 0 0 1 0"/>
<feBlend mode="normal" in2="BackgroundImageFix" result="effect1_dropShadow_82_2"/>
<feBlend mode="normal" in="SourceGraphic" in2="effect1_dropShadow_82_2" result="shape"/>
</filter>
<radialGradient id="paint0_radial_82_2" cx="0" cy="0" r="1" gradientUnits="userSpaceOnUse" gradientTransform="translate(640 629) scale(905.097 889.54)">
<stop offset="0.0147314" stop-color="#C6C6C6"/>
<stop offset="0.0147314" stop-color="#C6C6C6" stop-opacity="0"/>
</radialGradient>
<clipPath id="clip0_82_2">
<rect width="1280" height="1024" fill="white"/>
</clipPath>
<clipPath id="clip1_82_2">
<rect width="324" height="17" fill="white" transform="translate(478 651.5)"/>
</clipPath>
<clipPath id="clip2_82_2">
<rect width="324" height="17" fill="white" transform="translate(478 746.5)"/>
</clipPath>
</defs>
</svg>
